<?xml version="1.0" encoding="utf-8"?>
<!-- Generator: Adobe Illustrator 25.2.1, SVG Export Plug-In . SVG Version: 6.00 Build 0)  -->
<svg version="1.1"
	 id="svg3" xmlns:cc="http://creativecommons.org/ns#" xmlns:dc="http://purl.org/dc/elements/1.1/" xmlns:inkscape="http://www.inkscape.org/namespaces/inkscape" xmlns:rdf="http://www.w3.org/1999/02/22-rdf-syntax-ns#" xmlns:sodipodi="http://sodipodi.sourceforge.net/DTD/sodipodi-0.dtd" xmlns:svg="http://www.w3.org/2000/svg"
	 xmlns="http://www.w3.org/2000/svg" xmlns:xlink="http://www.w3.org/1999/xlink" x="0px" y="0px" viewBox="0 0 400 95.5"
	 style="enable-background:new 0 0 400 95.5;" xml:space="preserve">
<style type="text/css">
	.st0{fill:#FFB000;}
</style>
<sodipodi:namedview  bordercolor="#666666" borderopacity="1" gridtolerance="10" guidetolerance="10" id="namedview5" inkscape:current-layer="svg3" inkscape:cx="195.52613" inkscape:cy="-25.076779" inkscape:pageopacity="0" inkscape:pageshadow="2" inkscape:window-height="705" inkscape:window-maximized="1" inkscape:window-width="1366" inkscape:window-x="-8" inkscape:window-y="-8" inkscape:zoom="1.1160822" objecttolerance="10" pagecolor="#ffffff" showgrid="false">
	</sodipodi:namedview>
<path id="ultrasecreto" class="st0" d="M-0.6,32.5v0.2l0.5,1L-0.1,35v0.2l0.3,0.4c0.3,0,0.6-0.3,1-0.9h0.2l0.2,0.1l-0.2,0.5l0.2,0.5
	v0.2l-0.8-0.1c-0.9,0.3-1.4,0.5-1.3,0.8v0.2L0,38c2.7-0.1,5.3-0.4,7.9-0.9L8,37.6l2.4-0.2l9.9-0.3c2.1,0,4.2-0.5,6.1-1.3h0.2
	l-0.2,0.8v0.2l0.8-0.2l6.6-0.2H34c1.3-0.1,2.4-0.5,3.4-1.3l-0.7-1l0.8-0.3c0.4,0.4,0.8,0.6,1.4,0.5l-0.1,0.6l0.1,0.8l0.2,0.2h0.4
	c0.5,0,1.1-0.2,1.6-0.3l0.8,0.2v-0.2l0.2-0.2V35c-0.1-0.9-0.2-1.4-0.5-1.4c0.4-0.5,0.5-1.2,0.4-1.9l-0.3-1.2L41,30.6L36.7,32h-0.2
	l0.2-0.8c0-0.4-4.4-0.5-13.1-0.2L21,31.2c-4.5,0.2-8.9,0.8-13.4,1.7l0.5-0.7v-0.2L-0.6,32.5z M9.1,33.6l2-1.1c0,0.4,0.2,0.8,0.5,1.1
	v0.6H11l-1.2,0.5l-0.7-0.8L9.1,33.6z M19.3,33.5l0.2-0.2h0.4c0.7,0,1.3,0.2,1.9,0.5l-0.2,0.5l0.2,0.2l0.6-0.2V35l-0.6,0.2h-0.6v0.2
	h-0.4L19.3,33.5z M6.8,34.8L8,34.6v0.5c-0.2,0.5-0.6,0.7-1.1,0.7L7,35.2L6.8,34.8z M31.8,38.3c-0.5,0-0.9,0.2-1.1,0.7v0.2l1.4-0.1
	c0.6,0,1,0.1,1.1,0.5L32.9,40v0.2c0.1,0.8,0.7,1.1,2,1.3l0.8-0.3c-0.1-0.8-0.3-1.6-0.8-2.4l-0.5,0.1L31.8,38.3z M9.2,39.6
	c-1.6,0.1-2.4,1.1-2.6,3.3v0.2L7,42.8h0.2V43c-0.3,0-0.6,0.2-0.7,0.5c0,0.2,0.2,0.2,0.8,0.2v0.2c0,0.1-0.4,0.3-1.1,0.5v0.2
	c0.6,0,1.1,0.2,1.7,0.4c1.3,1.5,2.1,2.1,2.2,2.1h0.2c0.4-0.5,0.9-0.8,1.5-0.9v0.2c-0.1,1-0.4,1.5-1.1,1.5l-0.5-0.1
	c-1.1-0.2-2-1.1-1.9-2.3l-1.1,0.1c-0.3,0-0.5,0.1-0.8,0.3c-0.2,0.2-0.2,0.5-0.2,0.8c0.5,0.5,0.9,1.3,1,2.1c-0.5,0.4-0.8,1-0.8,1.7
	l0.1,1.6c0,0.2,0.5,0.4,1.7,0.3l1-0.1c0.9-0.1,1.8-0.2,2.6-0.5c-0.5,0.8-1.3,1.1-2.2,1.1H9.4c-0.9,0-1.9-0.2-2.8-0.5l0.1,0.1
	l0.2,1.1l0.3,8.6c0.3,2.8,0.7,4.1,1,4.1l1-0.3c0,0.4,0.2,0.8,0.5,1.1c1.1,0.2,1.8,0.4,1.8,0.7v0.4l-0.3,0.3l-1.8-0.3
	c-0.3,0.1-0.5,0.2-0.5,0.4v0.2c0.9,1.9,1.5,2.8,1.8,2.8h0.2c0.5-0.5,1.1-0.8,1.7-0.8h0.4l4.7,0.4l0.8-0.2l0.5,0.7V72l-0.2,0.2
	l-0.4-0.2c-2.1-0.2-3.1-0.5-3.2-0.7l-1.2,0.3l-0.8,0.1l-1.4-0.2l-0.7,0.7c2.4,2.8,6,4,10.4,3.7c2.3-0.2,3.6-0.5,4-0.7
	c2,0,4-0.5,5.8-1.3c4.4-2.2,6.3-7.6,6-16.1L37,53.3c-0.1-0.9-0.4-1.4-1.1-1.3c0.6-0.7,0.9-1.6,0.8-2.5c-0.1-1-0.2-2-0.5-3l-0.8,0.1
	v0.2l0.4,0.5v0.2l-1.4,0.1l-0.2-0.2c0.1-0.3,0.8-0.8,1.9-1.4v-0.2l-0.2-0.2l0.5-1.8l-0.3-0.4H36l-0.2,0.2c0,0.2-0.1,0.4-0.2,0.4
	h-0.2c-0.4-0.2-0.6-0.5-0.8-0.8v-0.2l1.1,0.3c0.2,0,0.3-0.4,0.5-1c0-0.3-0.7-0.5-1.9-0.4L31.7,42c-0.2,0-0.4,0.1-0.4,0.3v0.2
	c0,0.2,0.4,0.4,1.1,0.7l-0.3,0.3l-1.9-1.1l0.4-0.2l-0.7-0.7l0.2-0.2c0,0.4,0.2,0.6,0.3,0.6h0.4c0.3,0,0.8-0.4,1.2-1.2l-0.2-0.2h-1.2
	c-1.1,0.2-1.6,0.5-1.6,0.7l0.1,1.6c0,0.2,0.2,0.2,0.5,0.2c1.2,0.8,2.1,1.1,2.6,1.1h0.2c0.2,0,0.3-0.2,0.3-0.8h0.2
	c0,0.3,0.3,0.6,0.8,1l-3.1,1l-1.3-0.2l-0.2,0.2l0.1,3.4c0.1,1.3,0.4,2.2,1,2.7H30c-0.2,0-0.5,0.1-0.6,0.2c-0.2,0.2-0.2,0.5-0.2,0.7
	l0.3,0.8c0.8,0.7,1.2,1.1,1.2,1.6v0.2L30.7,55l-0.8-0.4h-0.2l-0.2,0.2l0.3,1.8v6.6l0.1,1.5l0.2,0.8v0.2l-0.6-0.2
	c-0.2,0-0.3,0.6-0.4,1.8c0.1,0.3,0.2,0.6,0.5,0.8c-2.1,0.4-3.2,0.8-3.2,1.3v0.2c1.2,0.1,2.4,0.2,3.5,0.5v0.2c-0.6,0-1.1,0.2-1.2,0.5
	L28,70.1c-0.6,0.2-1.2,0.4-1.8,0.7v-0.2c0-0.2,0.3-0.3,0.8-0.5V70c-0.5-0.1-1-0.3-1.4-0.5h-0.4v0.2c0.3,0,0.5,0.2,0.5,0.4v0.4
	l-0.4,0.2l-0.4-0.1v-0.2l0.2-0.2v-0.5l-0.2-0.2l-1.2,0.2c-4,0.2-6.6-0.6-7.9-2.4l-1.1-3.1c-0.5,0.1-0.8,0.4-1.1,0.7h-0.2v-0.2
	c0.1-0.3,0.5-0.5,1.1-0.5L14.4,60c0-0.5-0.2-1.1-0.3-1.6c0.2,0,0.2-0.3,0.2-0.9v-0.5c-0.1-0.8-0.5-1.5-1.1-1.9
	c0.8-0.1,1.2-0.8,1.1-2.4L13.8,49l0.1-0.8l-0.2-0.2c-0.5,0.1-1.1,0.3-1.6,0.6l-0.2-0.2c0-0.5,0.4-1.1,1.3-1.6L14,47
	c0.2-0.7,0.3-1.5,0.2-2.1l-0.2-0.7c-0.7-3.1-2.3-4.7-4.7-4.5H9.2z M30.5,39.3c-0.5,0-1,0.3-1.2,0.8v0.4h0.2c0.5,0.1,1-0.2,1.2-0.7
	v-0.2L30.5,39.3z M30.6,48.1c0-0.6,0.5-1,1.5-1.3c0.6,0,1,0.1,1.1,0.5c-0.6,0-0.8,0.2-0.8,0.5v0.2l-0.8-0.2
	c-0.2,0.2-0.5,0.4-0.8,0.5L30.6,48.1z M34,49c0.2-0.5,0.7-0.7,1.2-0.7l0.6,0.1v0.2l-0.1,0.2l-0.2-0.2c-0.2,0.3-0.6,0.5-1,0.5h-0.4
	L34,49z M7.3,56.2h0.2c0.8-0.1,1.5,0.3,1.8,1.1L9.3,58H8.6C8,57.6,7.4,56.9,7.3,56.2z M34.5,57.2h0.2l0.2-0.2l1.2-0.1l0.2,0.2
	c-0.1,0.2-0.2,0.5-0.5,0.5C35,57.8,34.6,57.6,34.5,57.2L34.5,57.2z M13.6,59h0.2v0.2h-0.2V59z M2.2,78.8l-0.2,0.2l0.2,5V84l0.2,0.2
	l25.8-1.4c0.9-1.1,1.5-1.6,1.8-1.6c0.5,0.1,0.6,0.2,0.6,0.3l-1.6,1v0.2l15.3-0.8l-0.2-1.2l0.1-3.9c0-0.2-0.1-0.4-0.3-0.4l-11,0.6
	l0.3,1l-0.5,0.7v0.2h0.5l1.1,0.3v0.4l0.3,1.1v0.2c-1.5,0.2-3.1,0-4.5-0.4v-0.2c1.2-0.6,1.8-1.2,1.8-1.8v-0.2l-1.7,0v-0.2
	c0.9-0.2,1.4-0.5,1.3-0.9h-0.2l-0.2-0.2L8.9,78.4l-0.1,0.2c0,0.4-0.1,0.6-0.2,0.6l-0.1,0.2c0-0.6-0.6-0.8-1.8-0.8l-3.9,0.3L2.2,78.8
	z M8.4,82.8l0.4-0.2l1.3,0.3c0,0.2-0.2,0.4-0.6,0.5l-1.1-0.4V82.8z M33,30.7l-0.2,0.2l0.2,5l0.2,0.2l37.6-2c0.2,0,0.4-0.6,0.4-1.8
	l-0.3-3.5l-0.2-0.2L33,30.7z M53.3,32.5l1-0.5c0,0.4,0.4,0.6,1.1,0.8v0.2c-1,0.1-1.5,0.3-1.5,0.7h-0.4l0.1-0.9L53.3,32.5z M43,38.1
	l-1.1,0.3c-1.7,1.1-2.4,3.6-2.2,7.5l0.1,1.2l0.9,10.1l0.2,9.6c0.4,4,0.8,6,1.1,6c0.6,1.1,2.1,1.7,4.7,1.5l0.8-0.1l7.3-0.6l5.1-0.2
	l4.3-0.5c1.8-0.1,2.8-0.9,2.6-2.4l-0.1-0.8c-0.5-1.8-1.1-2.6-2-2.5c-0.2,0.2-0.5,0.4-0.8,0.5h-0.2l-0.8-0.7l-3.2,0.5l-11.2,0.3
	l-0.8-16.5l-0.2-0.2c-0.4,0-0.6-0.1-0.6-0.2l-0.2-0.2l-0.1-1.5l-0.3-0.8h0.4l0.2,0.2c0,0.2,0.1,0.4,0.3,0.4h0.2l0.2-0.2l-0.2-5.7
	c-0.1-1.3-0.3-2.6-0.8-3.8c-0.5-0.9-1.4-1.3-2.7-1.2L43,38.1z M73.1,75l-37.8,2l-0.2,0.2c0.2,1.1,0.3,1.7,0.6,1.8
	c-0.3,0.4-0.5,0.8-0.5,1.3l0.1,2l0.2,0.2l37.7-2l0.2-0.2l-0.2-5L73.1,75z M77.6,28.3l-16.7,0.8l-0.2,0.2l0.3,3v2.4l0.2,0.2l0.2-0.2
	l5.9-0.2l2-0.2V34c-0.5-0.2-0.8-0.3-0.8-0.5v-0.4c1.3,0.2,2.1,0.6,2.4,1.1l0.8-0.2L87,33.4l15.3-0.7v-0.2l0.2-0.2l-0.3-5.3l-1,0.3
	l-3.5-0.2h-0.6c-0.5,0-0.8,0.2-1.2,0.5l0.5,1v0.2c-0.5,0-1-0.5-1.6-1.5l-8.9,0.3c-0.8,0-1.8,0.3-2.4,0.8c-0.4-0.4-1-0.6-1.5-0.5
	L81,28c-1.8,0.4-2.8,0.8-2.7,1.1h-0.2C77.9,28.6,77.8,28.3,77.6,28.3z M68.5,29.7l1.1,0.2v0.2l-0.5,0.8h-0.2c-0.2,0-0.3-0.2-0.4-0.8
	L68.5,29.7z M62.8,31.5l1.1-0.3l0.1,0.8l-0.8,0.1l-0.4-0.2V31.5z M90.6,31.2l1.3-1.1l0.3,0.6c-0.3,0.5-0.8,0.7-1.4,0.7L90.6,31.2z
	 M93.7,31.7l1.6-0.6l0.1,0.8h-0.5l-1.4-0.2c-0.2,0-0.4,0.3-0.3,0.8h-0.2l-0.2-0.2l0.2-0.9l0.6,0.1L93.7,31.7z M75.9,33.6
	c0.4-0.6,0.8-0.9,1.1-0.9l0.5,0.2c0,0.4-0.3,0.6-1.1,0.7H75.9z M88.4,35.4l-3.9,0.3l-1.6,0.1l-1.5,0.2v-0.2H81
	c0.1,0.8-0.4,1.1-1.2,1.3l-0.3-0.6L77,38h-0.2l0.1-0.4c0-0.2-0.4-0.5-1.1-0.9l0.2-0.4v-0.2L76,36.3l-4.7,0.2
	c-1.1,0.1-2.3,0.3-3.4,0.7c-0.6,0.5-0.9,1.3-0.8,2.5v0.5c0.1,0.4,0.2,0.6,0.3,0.6c0.1,1,1.5,1.5,4.5,1.5l1.6-0.1
	c2.9-0.2,4.6,0,5.2,0.4l0.5,12.8c0.2,1.8,0.5,3.6,0.9,5.3c-0.3,0.8-0.5,1.8-0.5,2.7c0.1,1,0.5,1.8,1.2,2.4h-0.5
	c-0.5,0-0.8,0.4-0.7,1.1l0.1,0.8c0.2,2.4,1.5,3.9,4,4.4h0.5c0.9-0.2,1.8-0.7,2.3-1.5l-0.2-0.2h-0.6l-1.6,0.7h-0.2l0.5-0.7
	c0-0.2-0.2-0.3-0.6-0.3V70h0.4l2.8,0.1c0.4,0,0.6-0.7,0.5-1.9c-0.1-0.5-0.3-0.9-0.5-1.4c0.2,0,0.4-0.1,0.4-0.3l-0.1-1.5L87,64.8
	l-1.1,0.3c-0.3,0-0.6-0.2-0.8-0.5v-0.2h0.2l0.2,0.2h0.2l1.6-0.6l-1.4-22.2L86,42l2.6-0.5c0.8-0.1,1.2-0.6,1.3-1.8
	c1,0.5,2,0.8,3.1,0.8v0.2c-0.6,0-1,0.2-1.1,0.5v0.2l0.2,0.2l0.8-0.1c1.7-0.2,2.5-0.4,2.4-0.8v-0.2l-0.8,0.1l-0.8,0.2v-0.2h-0.2v-0.2
	l0.6-0.2l1.9,0.4c0.8-0.7,1.3-1.7,1.4-2.7v-0.4C97.4,35.9,94.3,35.1,88.4,35.4L88.4,35.4z M83.8,38.2c-0.1-0.8,0.8-1.5,2.5-2.1
	c-0.6,2.1-1.4,3.1-2.2,3.1h-0.4V39l0.4-0.2L83.8,38.2z M80,38.5c0-0.2,0.2-0.3,0.6-0.4l1.4,0.3c0,0.4-0.3,0.6-1.1,0.7h-0.2l0.1-0.6
	H80z M92.5,39.1c0.3-0.5,0.8-0.8,1.5-0.9l0.4,0.1c-0.5,0.7-1,1.1-1.3,1.1L92.5,39.1z M74.7,41.5c0.3-0.9,0.8-1.5,1.5-1.5
	c0.4,0.2,0.6,0.3,0.7,0.5v0.2l-0.8,0.1C75.7,41.2,75.3,41.4,74.7,41.5L74.7,41.5z M81.3,42.1c0.6,0,0.9,0.2,0.9,0.7L82,43.4l0.2,0.2
	c1.5,0.2,2.1,0.4,2.1,0.8l-0.2,0.2c-0.7-0.6-1.6-0.8-2.5-0.8l0.2-0.4L81.3,42.1L81.3,42.1z M81.2,45.4h0.2l2.2,0.9
	c0,0.2-0.2,0.4-0.6,0.5l-1.4-0.2l0.1-0.6v-0.2c0-0.2-0.2-0.2-0.4-0.2L81.2,45.4z M81.5,48.3l1.8,0.5V49l-1.2,0.3h-0.2v-0.2h0.2v-0.2
	c0-0.2-0.3-0.4-0.8-0.3v-0.2L81.5,48.3z M82.2,50.1h0.4l2.2,0.9v0.5l-0.2,0.2l-1-0.2l-0.2,0.2c-0.7-0.2-1.1-0.8-1.2-1.5V50.1z
	 M81.6,58.8h0.6c0.5,0.6,0.8,1,1.1,0.9l-0.4,0.4c-0.5,0-1.1-0.2-1.5-0.5L81.6,58.8z M83.8,61.3l1.2,0.1L84.8,62l-1.2-0.1L83.8,61.3z
	 M81.1,63.6l0.4-0.4l2.1-0.1v0.4c-1,0.1-1.5,0.3-1.5,0.7C81.9,63.8,81.5,63.6,81.1,63.6L81.1,63.6z M76.8,74.7l-13.1,0.8
	c-0.2,0-0.4,0.1-0.4,0.3l0.1,1c0,0.8,0.3,1.6,0.8,2.2c-0.5,0-0.8,0.2-0.8,0.4l0.1,1.4l0.2,0.2l1.1-0.1c4.6-0.2,8.3-0.5,11.2-0.8
	l3.4,0.1c0.2-0.8,0.3-1.3,0.5-1.3h0.2v0.2l-0.2,0.4V80l0.2,0.2l1.5-0.1c0.8-0.1,1.2-0.4,1.2-0.9c0.5,0.4,1.1,0.6,1.8,0.7
	c0.5,0,0.8-0.3,1-0.8l0.4,0.4l-0.2,0.4V80l18.8-1l0.2-0.2l-0.1-0.8c0-0.5-0.3-0.9-0.8-1.1l0.6-0.7l-0.2-1.2l0.1-1.2
	c-4.7,0-9.3,0.1-13.7,0.3c-2.9,0.1-5.8,0.5-8.6,1.1C80.4,74.8,78.6,74.7,76.8,74.7L76.8,74.7z M80.1,75.2c1.4,0.5,2.1,0.8,2.1,1v0.2
	H82L81,76l-0.4,0.4c-0.2,0-0.4-0.4-0.5-1V75.2z M75.9,77c0-0.3,0.4-0.6,1.2-0.9h0.2c-0.2,0.5-0.5,0.8-0.8,1.1h-0.2L75.9,77z
	 M68.6,77.8h0.2l0.2,0.8v0.2h-0.4c-0.4-0.4-0.7-0.6-0.9-0.6v-0.2h0.2l0.5,0.1C68.6,78.3,68.6,78.2,68.6,77.8L68.6,77.8z M76.7,79
	l0.4-0.4h0.2c0.9-0.1,1.4,0.1,1.4,0.3v0.2c0,0.2-0.2,0.3-0.6,0.4C77.1,79.4,76.7,79.2,76.7,79z M93.7,27.3l-0.2,1.3h-0.2l-0.2-0.2
	c-0.2-0.7-0.2-1-0.5-1h-0.4l-0.2,0.2c0,0.7,0.2,1.4,0.4,2l1.4-0.5l0.5,0.5v0.2L93.2,30l-0.8-0.1l0.2,2.9l8.3-0.3
	c1.2-0.2,1.9-0.5,2.1-1.1c0.2,0,0.5,0.3,0.8,1l1.1-0.2l18.8-0.8c2.7-0.2,5.3-0.5,7.9-1.1l0.4,0.6l2.4-0.2c0.4,0,0.6-0.5,0.5-1.4
	l-0.1-0.8c-0.7-2.2-1.7-3.3-3.1-3.2l-0.8,0.1c-0.7,0.2-1.4,0.5-2,0.8c0-0.3-0.7-0.5-2.1-0.5l-8.9,0.6c-0.7,1.1-1.2,1.6-1.5,1.6
	l0.3-1.5l-6.6,0.4L93.7,27.3z M120.7,29.3c0.1-0.5,0.2-0.8,0.3-0.8c0.5,0.5,0.9,0.8,1.3,0.8v0.2l-0.1,0.1
	C121.7,29.6,121.2,29.6,120.7,29.3L120.7,29.3z M117.7,29.8l1.4,0.5l1-0.2l0.3,0.8l-0.2,0.2H120c0-0.5-0.2-0.8-0.3-0.8l-1.4,0.3
	h-0.6V29.8z M109,33.9c-1.6,0.1-3.3,0.2-4.9,0.5c-2.7,0.2-4,1.8-4.3,4.7l0.1,0.8c0.1,0.6,0.3,1.2,0.7,1.8c-0.4,0.4-0.6,1-0.5,1.5
	c0.2,1.3,0.4,2,0.6,2c0.5-0.3,0.8-0.5,0.8-0.7c0-0.4-0.3-0.8-0.9-1.2v-0.4c0.5,0,0.8-0.2,1.2-0.5h0.2c0.1,0.8,0.5,1.2,1.2,1.2
	l-1.3,1.1v0.2l0.3,0.4l0.2-0.4h0.2l0.3,0.8v0.2l-2.4-0.4l-0.2,0.6L101,54l-0.1,0.9c0.8,0.1,1.1,0.2,1.1,0.3
	c-0.8,0.2-1.1,0.4-1.1,0.5l0.2,3.9l0.3,1.8c-0.2,0-0.3,0.5-0.3,1.3l0.3,0.8l0.5-0.2c0.8,0.2,1.1,0.3,1.1,0.5v0.4l-0.4,0.2l-1.1-0.3
	l-0.2,0.2v1.9c0.1,0.6,0.2,0.8,0.5,0.8c0.4-0.6,0.9-1,1.6-1.2l0.4,0.1v0.2l-2.2,1.2c0.1,1.5,0.6,2.6,1.7,3.1l1-0.8h0.2v0.4
	c-0.6,0.2-0.8,0.3-0.8,0.5c0,0.2,0.4,0.4,1,0.5l0.8-0.3c0.8-0.8,1.8-1.3,2.8-1.4c-0.1-0.6,0.2-1.2,0.7-1.7c0-0.2-0.4-0.3-1.1-0.3
	l-1.3-1.3h-0.2c0,0.3-0.2,0.5-0.6,0.7v-0.2l-0.2-0.2c0.5-0.5,1.2-0.8,2-1l-0.2-0.5c0.2-0.8,0.5-1.1,0.8-1.1l0.5,0.1h0.2v-0.6
	l-0.5-6.1l0.2-1.6c0-0.5,0.7-0.8,2.1-0.8c1.3,0,2.6,0.3,3.8,0.9c2.6,1.5,4,2.3,4.4,2.3v0.4h-0.2l-0.8-0.1h-0.2l-0.2,0.2v0.2
	c2.3,2.8,3.5,4.4,3.5,4.6l1.6-0.6h0.4c-0.8,0.5-1.2,1-1.1,1.6v0.2c0,1.1,0.8,2,1.9,2.1l-0.1,0.5c0,0.5,0.6,1,1.7,1.5l-0.2,0.4
	c0,0.2,0.4,0.3,1.1,0.6l0.8-1.1h0.6l0.3,0.8l1.4-0.7c1.4-0.3,2.1-0.8,2.1-1.4V67c-0.2-0.9-0.7-1.8-1.4-2.4v-0.2h0.4V64l-0.3-0.4
	c-1.1-0.2-1.8-0.3-1.8-0.5l0.7-0.8V62l-0.2-0.4c-1-2.2-3.4-4.9-7.3-8c0.2-0.7,0.3-1,0.5-1h0.2l0.4,0.5c0.8-0.1,1.5-1,2.1-2.8
	l0.9,1.1h0.2c0.2,0,0.2-0.2,0.3-0.6c2.3-1.8,3.5-4.7,3.2-7.6l-0.1-0.8c-0.2-2.6-1.6-4.8-4.5-6.6C122.9,33.9,117.7,33.5,109,33.9z
	 M119.7,36.7l1.7,0.5c-0.1,0.2-0.2,0.5-0.5,0.5c-0.4-0.3-0.9-0.5-1.4-0.5v-0.2L119.7,36.7z M121,38.9c1.6-0.4,2.6-0.8,3-1.1l0.8,2
	c-0.5,0.2-1.1,0.4-1.6,0.7c0-0.7-0.8-1.1-2.2-1.4V38.9z M107.3,40.1c2.8-0.5,4.2-0.9,4.2-1.4h0.2v0.5c5,0.2,7.9,0.7,9,1.3
	c0.1,0.8,0.6,1.4,1.6,1.8c-0.5,0.9-0.8,2.7-0.8,5.2v0.2l-0.6-0.1h-0.2l-1.6,0.8v0.4l1-0.1c0,0.2-0.2,0.4-0.6,0.5l-2.1-0.4l-0.2,0.2
	v0.2l0.4,0.4h0.2l-0.1,0.4v0.2l1.4-0.1l0.4,0.4v0.2l-1.1-0.2h-0.4l-0.2,0.2V51c0.1,0.2,0.3,0.3,0.7,0.5c0.5-0.1,0.9-0.3,1.2-0.7v0.4
	c0,0.6,0.5,0.8,1.3,0.8c-0.2,0.4-0.5,0.7-1,0.7h-1.9c-0.2-1-0.5-1.5-0.9-1.5c-0.2,0-0.4,0.1-0.4,0.3l0.1,1.2h-0.5v0.4l0.2,0.2
	l0.6-0.5h0.2c0,0.5-0.4,0.8-1,0.8h-0.4c-0.3,0-0.6-0.7-0.8-2.2v-0.2h0.2l0.2,0.2h0.4c0.5-0.1,1.1-0.5,1.3-0.9
	c-0.7-0.7-1.7-1-2.7-0.8l-6.5,0.5h-0.2c-0.2-0.9-0.5-1.8-0.9-2.8c0-0.2,0.2-0.3,0.6-0.4l-0.3-0.8l0.1-1.4c0-0.3-0.2-0.5-0.4-0.5
	c0.4-1.1,0.5-2.1,0.5-3.3L107.3,40.1z M118.5,39.3l0.4-0.4h0.5c0.6,0,1,0.1,1,0.3l-0.4,0.2L118.5,39.3z M103.2,42.3
	c0.3-1,0.8-1.5,1.5-1.6h0.2c-0.6,0.7-1,1.5-1,2.4C103.7,43.1,103.5,42.9,103.2,42.3z M102.6,46.8c0-0.3,0.6-0.7,2-1.1h0.2
	c0.1,0.3,0.2,0.6,0.5,0.8l-2.5,0.2L102.6,46.8l-0.1,0.2L102.6,46.8z M125.9,47.6c0.5-0.7,1.3-1.1,2.2-1.2h0.2v0.2l-0.2,0.2
	c-1.1,0.4-1.8,0.8-1.7,1.2v0.2l0.2,0.2h-0.2L125.9,47.6z M102.2,48.9c0.1-0.4,0.2-0.6,0.5-0.7l1,0.1l-1.1,1.2
	C102.5,49.5,102.3,49.4,102.2,48.9z M104.6,57l1-0.1v0.5l0.3,0.8h-0.2l-0.2,0.2c-0.5-0.3-0.8-0.7-1.1-1.2L104.6,57z M101.5,61.3
	l0.2-0.2h0.2c0.2,0,0.4,0.2,0.5,0.6l-0.2,0.2L101.5,61.3z M104.5,66.8h0.2c0.4,0.2,0.6,0.5,0.7,0.8c0,0.4-0.1,0.7-0.3,0.8l-0.3-0.6
	l-1.2,0.5h-0.2v-0.5C104.2,67.7,104.5,67.3,104.5,66.8z M106.1,68.3c0.2-0.4,0.5-0.5,0.8-0.5h0.2l0.2,0.2v0.6h-0.2L106.1,68.3z
	 M128.2,71.7l-16,1.6l-1.4-0.1v0.2l1.5,0.8l-0.2,0.2h-0.4l-0.8-0.7c-0.5,0.9-0.9,1.5-1.5,1.5v0.2l0.5,0.9l-0.7,1.9v0.2l9.2-0.2
	l4.7-0.2l8.8-0.7v-0.2h-0.2v-0.2l1-0.3h0.2l-0.2,0.6l0.2,0.2h0.2c0.6-0.2,1.1-0.5,1.6-1h0.2c0,0.6,0.5,0.8,1.3,0.8h0.6l0.2-0.2
	l-0.2-3.7l-0.2-0.2c-0.3,0.1-0.6,0.2-0.8,0.5h-0.2l-0.2-0.2v-0.2l0.2-0.2c0.9-0.3,1.4-0.5,1.4-0.7v-0.5l-0.2-0.2h-0.5
	c-0.3,0.4-0.7,0.7-1.2,0.8H135v-0.2l0.2-0.2v-0.2c0-0.4-1.5-0.5-4.5-0.4L128.2,71.7z M106.8,73c-1.9,0.2-3.8,0.6-5.6,1.3v-0.2
	c0-0.2,0.4-0.4,1.2-0.5v-0.2l-7.6,0.4L94.6,74v0.4l0.5,3.9L95,79.1v0.2l0.2,0.2l0.5-0.2l4.5-0.1c0.8-0.2,1.2-0.5,1.2-0.8h0.2
	c0.7,0.5,1.5,0.8,2.4,0.8c1.3-0.2,2.5-0.6,3.6-1.3v0.4c0.5,0,1.1-0.2,1.5-0.7v-0.2l-0.2-0.2l-0.6,0.2l0.1-1v-0.2l-1.5-0.3l1.9-2.5
	l-0.2-0.2L106.8,73z M96.2,75.3c0-0.4,0.2-0.6,0.8-0.8c0.9,0,1.4,0.2,1.4,0.3L96.2,75.3L96.2,75.3z M104.4,75.7
	c0-0.2,0.2-0.2,0.6-0.3h0.2l-0.3,1.1c0.1,0.4,0.3,0.6,0.7,0.6v0.2l-0.8,0.2h-0.2v-0.6c0-0.2-0.3-0.4-0.9-0.3c0-0.2,0.3-0.3,0.8-0.5
	h0.2L104.4,75.7z M111.6,76l1.5-0.2c0.4,0,0.7,0.1,0.8,0.3c-0.5,0.5-1.1,0.8-1.8,1H112L111.6,76z M126.3,25.6l-0.2,0.2l0.3,5.3
	l0.2,0.2l21.9-1.4l21.5-0.8l0.2-0.9c-0.2-2.5-0.7-4.1-1.6-4.8L126.3,25.6z M168.3,26l1,0.1l-0.1,0.4l0.2,0.8v0.2h-0.2
	c-0.4-0.3-0.8-0.5-1.3-0.5h-0.2l-0.2,0.2v-0.2C168.1,26.5,168.3,26.2,168.3,26z M148.3,32.1l-1.4,0.2c-3.1,1.5-4.6,3.7-4.4,6.5V39
	c1.3,0.2,1.9,0.3,1.9,0.5l-2,0.1c-1.1,1.9-2.9,7.2-5.4,15.7c-2.5,6.1-3.7,9.7-3.7,10.9v0.5c0.8,2.1,2.2,3.1,4,3.1h0.4
	c1.1-0.1,1.9-0.8,2.6-2.4c0.9-4.2,1.8-6.6,2.5-7l3.9-0.2l9.6-0.4l0.6-0.2l0.5,1.6c1.9,4.8,3.8,7.2,5.8,7.1c1.5-0.2,2.7-0.9,3.4-2.2
	c0-0.3-0.5-0.8-1.3-1.3v-0.4h0.2l0.8,0.7l0.4-0.3c-0.2-1.4-0.6-2.7-1.3-3.8c-0.2-1-0.3-1.5-0.6-1.5h-0.2l-1,0.3v-0.2
	c0.5-0.5,0.8-0.9,0.8-1.1c-2.4-4.6-5-10.6-8.3-18.1c-1.9-5.7-4.4-8.4-7.6-8.3L148.3,32.1z M148.4,40h0.2c0.3,1,0.7,1.5,1.2,1.5
	l-0.1,0.6v0.4c0,0.6,0.5,1.1,1.4,1.5l0.1,1.4l0.3,1.5c2.1,4.5,3.1,6.9,3.1,7.3l-10.4,0.5l0.1-0.6c1.5-4.2,2.3-6.8,2.2-7.9l-0.1-1.1
	l-0.2-0.2c0.8-0.4,1.2-0.8,1.2-1.3v-0.2l-0.2-0.2l-0.7,0.7l0.2-0.8C147.4,43.2,147.9,42.1,148.4,40L148.4,40z M145.3,56.3
	c0.2-0.6,0.7-1,1.3-1.1h0.2c-0.5,0.4-0.7,0.8-0.7,1.4C145.9,56.7,145.6,56.5,145.3,56.3L145.3,56.3z M128.7,71.9l-0.2,0.2l0.2,4
	c0,0.5,0.2,1.1,0.5,1.5l1.4-0.3l7.5-0.3c1,0,1.9-0.3,2.8-0.8c0.8,0.3,1.6,0.5,2.4,0.5l1.1-0.1l1.8-0.4v-0.2c0-0.2-0.2-0.2-0.4-0.2
	v-0.4l0.5,0.2l1.4-0.5h0.2c0.2,0,0.3,0.2,0.4,0.6l-0.2,0.2l-0.9-0.3l-0.2,0.2v0.2l0.2,0.2l18.2-0.7c4.8-0.2,7.3-0.5,7.3-0.9l-0.2-5
	l-0.2-0.2L128.7,71.9z M174.6,23.1c-8,0.5-12,1-12,1.4l0.2,4.7l0.2,0.2l2.8-0.2c0.9,0,1.9-0.2,2.8-0.6c1.1,0.3,2.3,0.5,3.4,0.5
	l9.6-0.6h0.2c0.2-1,0.7-1.5,1.1-1.6l-0.7-0.6v-0.2l0.2-0.2l0.2,0.2c0.7-0.1,1.4,0.1,2,0.3l-0.3,1.1v0.2c0,0.3,1.2,0.5,3.5,0.3h0.6
	c2.1-0.1,3.2-0.3,3.2-0.7v-0.2l-0.5-1.2v-0.2l0.6,0.1h0.2l1.6-0.6v0.2l-0.8,0.8v0.2l0.2,0.2l0.8-0.3h0.2l-0.1,0.4
	c0,0.2,0.3,0.5,0.9,1.1l4.4-0.2c0.2-0.1,0.4-0.3,0.3-0.8l-0.1-2l-0.2-0.2l-1.5,0.6h-0.2l-0.2-0.2v-0.2l0.8-0.1
	c0.4,0,0.7-0.2,0.8-0.4l-1.8-1.1l1.1-0.1c0.5,0,0.8-0.3,1-0.7v-0.2l-0.2-0.2L174.6,23.1z M175.9,24.2c0-0.2,0.2-0.3,0.6-0.4l1.9,0.2
	h0.4v0.2c-0.6,0.5-1.4,0.8-2.2,0.8h-0.2l0.1-0.4v-0.2l-0.6,0.2L175.9,24.2z M188.7,25.2c0-0.2,0.2-0.2,0.5-0.4
	c0.5,0.2,0.9,0.4,1.1,0.8v0.2h-0.5l-1.1-0.5L188.7,25.2z M185.7,25.9l0.7-0.8l0.8-0.1l0.2,0.2c-0.2,0.5-0.5,0.9-1.1,0.9h-0.5V25.9z
	 M174.4,26.4l0.4-0.4h0.2c0.4,0,0.7,0.1,0.8,0.3v0.4l-0.2,0.2l-0.8-0.3h-0.2l-0.2,0.2v-0.2L174.4,26.4z M186.8,26.9l0.5-0.5l0.8-0.1
	l1,0.2c-0.1,0.4-0.5,0.7-0.8,0.7l-1.5-0.2L186.8,26.9z M179.9,30.4c-1.5,0.2-3.1,0.5-4.4,1c-4.9,2.3-7.3,5.3-7,9.2l0.1,0.8
	c0,1.5,0.5,3.1,1.4,4.4l0.8-0.3h0.2v0.2h-0.4v0.2c0.7,0.9,1.5,1.8,2.4,2.4c1.4,0.9,3.7,1.5,6.7,1.8l3.8,1.5c4.3,0.5,6.5,2.1,6.6,4.8
	l-0.1,1c-0.5,2.8-2.8,4.3-7,4.5c-2.1,0.2-4.3-0.7-5.7-2.4c-2-3.8-3.5-5.7-4.7-5.7l-0.8,0.1c-1.5,0.1-2.6,1.2-3.1,3.4
	c0.2,0.9,0.5,1.4,0.7,1.4c0.2,1.1,0.5,2.2,1.1,3.2c2.8,3.9,7,5.7,12.7,5.3c2.1-0.2,4.1-0.6,6.1-1.5v-0.2l-0.2-0.2l-0.1-1.1
	c-0.1-0.9-0.5-1.4-1.2-1.3v-0.2l2.5-0.4h0.5c1.2,0,1.9,0.2,1.9,0.5c-1.1,0.1-1.8,0.6-1.7,1.8v0.2l0.2,0.2c0.4-0.1,0.8-0.2,1.1-0.5
	c0-0.2-0.2-0.2-0.4-0.2v-0.2h0.2l0.8-0.2c2.8-1.8,4-4,3.9-6.7l-0.3-1.5c0.4,0,0.6-0.2,0.6-0.4V55l-0.5-0.5l0.2-1.4l-0.2-1
	c-1-2.6-2.1-3.9-3.4-3.8l-0.8,0.1v-0.2l0.2-0.4v-0.4c-5.2-2.1-9.2-3.1-11.9-3h-0.2v0.2l1.8,1.8v0.2h-0.6c-1.5,0-2.1-0.2-2.1-0.5
	l0.5-0.3l-0.5-1.6c0-0.5-1.1-0.9-3.1-1l-2.1,0.2h-0.2v-0.5l-0.2-0.6c0.5-0.1,1-0.4,1.3-0.8V41c0-0.2-0.3-0.3-0.9-0.6
	c0.5-1.2,1.2-2.4,2.1-3.4l-0.2-0.8c0.2-0.6,0.5-1.1,1.1-1.5l-0.3-0.4l-0.1-0.8l0.2-0.2c0.2,0,0.6,0.2,1.1,0.6h0.2
	c0-0.7,0.4-1.3,1.1-1.5l0.5,0.1v0.2c-1.3,0.8-1.9,1.5-1.9,1.8l0.2,0.2h0.2c0.4-0.1,0.8-0.2,1-0.5h0.2v0.2l-0.2,0.2
	c-0.2,0-0.4,0.1-0.4,0.3c0.1,0.2,0.3,0.4,0.8,0.3l0.8-0.1c0.4,0,0.7-0.2,0.8-0.5l0.8,0.6c3,0.8,4.5,1.7,4.5,2.7l1.5-0.3
	c0.7,0,1.3,0.2,1.8,0.7h0.2l-0.2-0.6c0-0.2,0.1-0.4,0.2-0.4l0.5,0.4h0.2l1.1-0.2c0.5,0.2,0.8,0.3,0.8,0.5h-0.5l-0.8-0.1h-0.2
	l0.2,1.2c0,0.3-0.2,0.5-0.7,0.5h-0.2l-0.5-1h-0.2c-0.2,0-0.5,0.8-1.1,2.2v0.2l0.2,0.2l1.2-0.2l-0.2,0.8v0.2l0.8-0.1
	c2-0.1,3.1-1.3,3.2-3.7c-0.5-2.8-1.5-4-2.8-4c-0.2,0-0.2,0.2-0.2,0.6l-1.5,1.3c-0.2-0.2-0.5-0.3-0.9-0.3l-0.9,0.1
	c-0.5,0-0.8,0.2-1.2,0.5l-0.2-0.4c-1-0.2-1.5-0.7-1.6-1.5l-0.6,0.2l-1.1-0.2v-0.2l5.3-0.5l3.3,0.1v-0.2L191,33
	c-2.3-1.5-4-2.3-5.3-2.2h-0.2l-0.2,0.2l0.3,0.6h-0.2C184,30.7,181.9,30.4,179.9,30.4L179.9,30.4z M181.7,31.3l0.2-0.2h0.2l1.3,0.3
	v0.2l-0.4,0.2l-1.3-0.2V31.3z M183.5,32.1v-0.2c1.5,0.2,2.3,0.4,2.3,0.6l-0.6,0.2l-1.2,0.1l-0.4,0.3l0.2,0.6v0.2h-0.2l-0.2-0.2h-0.2
	l-0.8,0.3v-0.2C183.1,33.4,183.4,32.8,183.5,32.1L183.5,32.1z M173.4,33.3c0.7-0.1,1.5,0.1,2.1,0.5l-1.6,0.8h-0.2v-0.2l0.5-0.2v-0.2
	c-0.2-0.4-0.5-0.6-0.8-0.6L173.4,33.3L173.4,33.3z M180.6,33.2L181,33l1,0.1c-0.2,0.5-0.6,0.8-1.1,0.8h-0.5v-0.2l0.5-0.2L180.6,33.2
	L180.6,33.2z M174.8,44.5c0.1-0.2,0.4-0.4,1-0.5h0.2c1,0.2,1.9,0.5,2.7,1c-0.8,0.8-1.8,1.2-2.8,1.3c-0.9,0.2-1.9-0.2-2.7-0.8
	l0.4-0.4l3.3,0.3l0.2-0.2v-0.4l-0.3-0.4c-0.5,0-1.1,0.2-1.6,0.3v-0.2h-0.2L174.8,44.5z M183.2,46.9l0.1-0.5c0-0.3,0.5-0.5,1.6-0.7
	l0.5,0.1V46l-0.4,0.4l-1.1,0.1c-0.2,0-0.3,0.2-0.4,0.5L183.2,46.9L183.2,46.9z M181.6,47.4h0.2l0.2-0.2h0.2l1.5,0.2v0.2
	c0,0.2-0.3,0.5-1,0.5C182.1,48.1,181.6,47.8,181.6,47.4L181.6,47.4z M188.7,47.1l0.8-0.1v0.2l-0.2,0.2v0.2l0.2,0.2
	c0.4,0,0.6,0.1,0.6,0.2l0.2,0.2v0.5l-2.4,0.2l-0.1-0.8l0.8-0.3v-0.2l-0.2-0.2L188.7,47.1z M180.1,48.6v-0.2c1.4,0.3,2.1,0.5,2.1,0.8
	v0.4l-1.9,0.1l-0.8-0.2L180.1,48.6z M186.3,49.8c0.3-0.5,0.7-0.8,1.2-0.9l-0.1,0.6V50h-0.4L186.3,49.8z M190.8,48.9l0.2-0.2
	c0.3,0.3,0.7,0.5,1.1,0.5v0.2l-0.4,0.4l-0.8,0.1v-0.6L190.8,48.9z M188.4,49.3l0.2-0.2l1.2,0.1c0.1,0.5-0.2,1-0.7,1.1
	C189,50.3,188.7,50,188.4,49.3L188.4,49.3z M165.3,70l-0.2,0.2v0.4c0.1,1.2,0.2,2.5,0.5,3.7l-0.1,1.1l2.5-0.2c0.7-0.2,1-0.4,1-0.5
	c0.9,0.4,1.9,0.6,2.9,0.6l6.5-0.6l23.2-1.2l0.2-0.2l-0.3-5.1l-0.2-0.2l-5.3,0.4L165.3,70z M189.5,70.8c0-0.2,0.2-0.4,0.7-0.5h0.2
	v0.2c-0.3,0-0.5,0.1-0.5,0.3v0.2l0.2,0.2l0.8-0.4h0.2c-0.3,0.6-0.5,0.9-0.8,0.9H190c0-0.3-0.2-0.5-0.5-0.5L189.5,70.8z M192.3,22.1
	l-0.2,0.2l0.1,1.8l0.2,1.1l-0.1,0.9l0.1,1.2c0,0.2,0.2,0.2,0.5,0.4l2.9-0.3l1,0.2l0.2-0.2v-0.2c-0.7-0.1-1-0.2-1-0.3l1.6-0.1
	l0.2-0.2c0-0.3-0.7-0.5-2.1-0.8c0-0.2,0.3-0.3,0.8-0.5c1,0.1,1.5,0.5,1.5,1.1l-0.6,0.9v0.2l2.5-0.2l0.2-0.2
	c-0.4-0.8-0.9-1.5-1.5-2.2l-3.3-0.6h-0.2c-0.2,0.8-0.4,1.1-0.5,1.1c0-0.5-0.2-0.8-0.4-0.8l-1.4,0.1c0.2-0.3,0.4-0.8,0.5-1.1h0.2
	l0.9,0.6l0.4-0.3l-0.9-0.6v-0.2l0.2-0.2l1.4,0.2h0.2c0.2,0,0.3-0.2,0.5-0.8c0.5,0.2,1,0.4,1.4,0.7c1.5,1.7,2.7,2.5,3.5,2.4h0.2
	l0.2-0.2l-0.9-0.8v-0.2l2.9-0.4h0.2l-0.3,0.3l0.3,1.2l0.8-0.2h0.2c-0.2,0.3-0.5,0.6-0.5,1v0.2l0.3,0.4l0.2-0.2l3.1,0.2h0.5
	c0.1-0.8,0.2-1.1,0.3-1.1h0.2l0.4,0.2l1-0.3V26l0.2,0.2c0,0.2-0.2,0.2-0.5,0.4l0.2,0.2l1.1-0.1l0.2-0.2l-0.1-1.2l0.9,0.2h0.4
	c0.5-0.5,1-0.8,1.6-1h0.6v-0.4l-0.5-0.6v-0.2l0.8-0.2h0.2c0.5-0.1,1.1,0.3,1.3,0.8c-1.3,0.1-2.8,0.9-4.5,2.6v0.2h0.2l0.2-0.2
	l1.2-0.1l8.4-0.2h0.2c1.8-0.1,3.4-0.4,5.1-1c0.6,0.5,1.5,0.8,2.3,0.8l1.2-0.1l0.2-0.2l-0.2-4c0-0.5-0.2-1.1-0.5-1.5l-2.5,0.2
	l-0.8,0.1l-11.4,0.4h-0.4c-2.3,0.1-4.6,0.5-6.7,1.4c0-0.5-0.5-0.8-1.5-0.9h-0.6l-0.8,0.3l-3.1,1.8c-0.7-0.8-1.1-1.2-1.3-1.2L201,23
	h-0.4l0.2-0.5l-1.1-0.6l-0.8,0.1l-1,0.9c0-0.5-0.9-0.8-2.7-0.8l-2.4,0.2L192.3,22.1z M198.5,22.4l0.4-0.2l1.4,0.5
	c0,0.6,0.3,0.8,0.8,0.8v0.2c-0.3,0.1-0.6,0.2-0.8,0.5H200v-0.2C199.1,23.4,198.5,22.8,198.5,22.4L198.5,22.4z M205.9,22.4l0.6-0.4
	h0.2l0.8,0.7l-1.1,0.5l-0.5-0.7L205.9,22.4z M205.5,23.1l0.9,0.2v0.2l-0.4,0.2c0,0.2,0.2,0.2,0.4,0.2v0.2h-0.5
	c-0.3-0.1-0.5-0.3-0.7-0.6L205.5,23.1z M226,23.4c-0.1-0.8,0.4-1.2,1.3-1.5c0.2,0,0.3,0.2,0.4,0.6C227.6,22.8,227.1,23,226,23.4
	L226,23.4z M206.9,24.2c0.2-0.5,0.6-0.8,1.1-0.8h0.2c-0.3,0.4-0.5,0.9-0.5,1.4h-0.2C207.5,24.4,207.3,24.3,206.9,24.2L206.9,24.2z
	 M202.6,25.8c-0.3,0.1-0.6,0.2-0.8,0.5l1.1,0.6h0.2l0.2-0.3v-0.4l-0.4-0.4H202.6z M219.5,28.7c-1.4,0.1-2.8,0.3-4.1,0.6v0.2l0.6,0.3
	l-0.2,0.2h-0.4c-0.6,0-1.1-0.4-1.3-0.9h-0.2c0,0.3-0.2,0.5-0.7,0.5c-0.7-0.3-1.5-0.5-2.1-0.5c-0.8,0.1-1.8,0.3-2.4,0.8
	c-1.5-0.3-2.9-0.5-4.4-0.4l-1.6,0.1c-2.1,0.1-3.5,1-4.1,2.8c0.1,0.3,0.2,0.5,0.4,0.5l1.1-0.1l0.2-0.2c0.5,0.2,0.8,0.5,0.8,0.7
	l-0.5,0.3l-1.4-0.5h-0.5l-0.2,0.2l1.1,0.8v0.4c-0.8,0.5-1.1,0.8-1.2,1.1l0.5,7l0.2,3.1l-0.1,1.5l0.9,0.3h0.2c1.5-1.9,2.4-2.9,3-2.9
	v-0.2l-0.7-0.6v-0.2c0.5,0,0.8-0.2,0.8-0.3c-0.2-0.3-0.5-0.5-0.8-0.5v-0.2h0.2c1,0.3,1.5,0.8,1.6,1.7V45c0,0.5-0.2,0.8-0.5,1.1
	l-1.4-0.5l-0.8,0.2c-0.4,1.6-0.8,2.4-1.1,2.4h-0.2l-0.9-0.1v0.2l-0.2,0.2l0.1,0.8l0.5,1.8l-0.2,1.4v0.2l1.8,0.2
	c1.1-0.2,2.3-0.5,3.4-0.9v-0.2l-0.2-0.2c0-0.5,0.2-0.8,0.5-1.1h0.4l0.9,0.7l0.5-0.5l-0.1-1.1l0.2-0.2l2.4-0.2l7.3-0.6l2.7,0.1v-0.2
	l-0.2-0.8c0-0.6,0.5-1.1,1.5-1.4h0.2c-0.7,0.8-1.1,1.4-1.1,1.8v0.2l0.2,0.2l1.4-0.1c2.1-0.1,3.2-1,3.1-2.7v-0.2c0-0.5-0.2-1-0.5-1.4
	c-1.1-1.1-2.9-1.6-5.5-1.5c-2,0.2-4,0.6-5.8,1.3v0.2c0.6,0,1.3,0.1,1.9,0.3v0.2H214c-0.2,0.7-0.5,1-0.6,1.1h-0.2l-0.2-0.2v-0.2
	l0.2-0.2V45l-1.5-0.9l0.1-0.4v-0.2l-1.1,0.3c-1.2-0.3-2.4-0.5-3.7-0.5l-0.8,0.1l-0.2,0.2c-0.4,1.4-0.8,2.1-1.4,2.1h-0.2
	c0.6-1.1,0.9-2.2,1.1-3.4c-0.1-0.9-0.4-1.8-0.9-2.4c0.7,0,1-0.5,0.9-1.1l-0.4-3c0-0.6,0.7-0.9,2.1-1l5.8,0.1h0.2
	c1,0,1.9-0.4,2.8-0.9h0.2c0,0.2,0,0.3-0.1,0.4s-0.2,0.2-0.4,0.2v0.2l5-0.2c2.4-0.2,3.7-0.9,3.9-2.4v-0.2c-0.8,0.1-1.3-0.6-1.6-1.9
	v-0.2h0.2l0.6,0.3l0.2-0.2v-0.2C223.9,29,222.3,28.6,219.5,28.7L219.5,28.7z M199.8,31.1c0.4-0.5,1-0.8,1.6-0.7l2.3,0.4v0.2
	l-0.6,0.2l-3.1,0.1L199.8,31.1z M213.3,30.2l1.7,0.4v0.2l-0.2,0.2l-1.7-0.3v-0.2L213.3,30.2z M209.5,32.2l0.6-0.2l0.8-0.1
	c0.2,0,0.4,0.2,0.4,0.6h0.2v-0.2h0.2v0.2c-0.3,0.5-0.8,0.8-1.5,0.8c-0.2-0.7-0.4-1-0.7-1V32.2z M200.7,35.1l0.8,0.1h0.2l0.2-0.2
	l0.2,1.1c-0.8-0.2-1.1-0.4-1.1-0.5L200.7,35.1z M203.1,47.4c0.5,0,1.4-0.5,2.7-1.5l0.6,0.3c0,0.2-0.3,0.3-1,0.5
	c0,0.4,0.2,0.7,0.5,0.8l1-0.1v0.2c0,0.2-0.2,0.4-0.6,0.5l-1.4-0.1h-0.2l-0.2,0.2l0.3,0.6V49l-1.3-0.2V49l-0.2,0.2v0.6l-0.9-0.3v-1.9
	v-0.2H203.1z M213.8,46.4l0.4-0.2l1.7,0.8h0.2c0,0.5-0.4,1-1.2,1.2h-0.2v-0.2l0.2-1.1C214.7,46.6,214.4,46.4,213.8,46.4L213.8,46.4z
	 M204.9,47.2c-0.6,0-1.2,0.3-1.6,0.8v0.2l1-0.1c0.4,0,0.7-0.2,0.8-0.4v-0.5L204.9,47.2z M205.6,52c-0.5,0.8-1.7,1.2-3.4,1.3
	l-1.2,0.1c-0.5,0.1-1.1,0-1.6-0.2v0.2l-0.2,0.2v0.6l0.7,0.6c-0.4,1.1-0.5,2.3-0.5,3.4l0.1,1.6c0.1,1.3,0.4,2.6,0.7,3.8
	c0.1,1.5,2.1,2,6.3,1.8l2.2-0.2c1.8-0.1,3.4-0.4,5.1-0.9c2.4,0.3,4.8,0.5,7.2,0.4l1.8-0.1c3.2-0.2,4.7-1.5,4.6-3.7l-0.2-0.6
	c-0.9-1.4-3-2-6.3-1.8l-3.7,0.2l-0.4,0.5v0.2l-2-0.2h-0.5c-0.6,0-1,0.2-1.1,0.5c-1.7-0.5-3.4-0.5-5-0.4c-0.9,0.1-1.8-0.5-2-1.4
	c0.5-0.4,0.7-1.5,0.6-3.3l-0.2-2.5l-0.2-0.2L205.6,52z M201.7,58.7c-0.1-1.5,0.5-2.1,1.9-2.2c-0.2,1.5-0.8,2.2-1.8,2.2H201.7z
	 M206.1,61.6l0.4-0.2l1,0.2c-0.7,1.3-1.1,1.9-1.4,2l-0.2-0.2l0.5-0.7l-0.1-0.8L206.1,61.6L206.1,61.6z M220.1,62.7l0.6-0.2h0.5
	l0.1,0.9l0.3,0.4V64h-0.4C220.7,63.6,220.4,63.2,220.1,62.7L220.1,62.7z M231.1,66.4c-1.4,0.2-2.7,0.8-3.8,1.5h-0.2
	c0-0.2,0.2-0.3,0.8-0.4v-0.5l-9.3,0.2c-2.3,0.2-4.6,0.5-6.9,0.8v0.2h0.4v0.2l-0.4,0.2c-0.3-0.2-0.7-0.2-1-0.2v-0.2l0.2-0.4v-0.2
	l-0.2-0.2l-1.1,0.2l-1.6-0.1c-1.5,0.1-2.4,0.4-3,1.1h-0.2l-1.1-0.8h-0.2c0.1,0.8-0.8,1.1-2.3,1.2h-0.2c-0.2,0-0.3-0.3-0.5-0.8h0.2
	l-0.2-0.2l-5.7,0.3l-0.2,0.2l0.2,3.5c0,0.2,0.3,0.3,0.9,0.5c1.1-0.5,2.2-0.8,3.4-0.9h0.4c1.1-0.2,2.1,0.2,2.9,1
	c-1.1-0.2-2.3-0.3-3.4-0.3h-0.6c-1.1,0.1-2.3,0.5-3.4,1.1v0.2l6.2,0.1l15.9-1h0.2c0.4-0.7,1.1-1.1,1.9-1.2h0.2v0.2
	c-0.9,0.2-1.4,0.5-1.4,0.7v0.2l0.2,0.2h0.2l0.2-0.2l1-0.1l2,0.2h0.2c0.4,0,0.8-0.3,0.8-0.7l-0.3-0.5v-0.2c0.4-0.1,0.8-0.8,1.4-2
	c0.5,0.2,0.8,0.4,0.9,0.6V70l-0.8,0.2v0.2l0.6,0.1l4-0.2l1.2-0.2c0,0.7,0.5,1,1.1,0.9v0.4l-0.4,0.2c-0.4,0-0.9-0.3-1.5-1.1h-0.2
	l-0.2,0.2l-0.4,0.5h-0.4l-0.8-0.6c-0.2,0-0.2,0.2-0.2,0.6l-1,0.1l-0.5,0.4c0,0.5,2.5,0.5,7.6,0.4l0.2-0.4v-0.4l-0.5-3.1l0.2-1
	C232.4,66.7,231.8,66.4,231.1,66.4L231.1,66.4z M203.3,69.2l1.1-0.3h0.2l0.2,0.2l-0.6,0.5l0.5,1.1v0.2c-0.9-0.5-1.5-1.1-1.5-1.5
	L203.3,69.2z M216,70.2c0-0.2,0.2-0.4,0.8-0.4c0.1-0.5,0.2-0.8,0.3-0.8h0.2c0.8,0,1.3,0.2,1.3,0.7v0.2l-1.2,0.1l-1.4,0.5V70.2z
	 M206,72.1c0-0.3,0.5-0.5,1.4-0.7h0.2l0.4,0.4V72L206,72.1z M208.4,72.2c0.1-0.3,0.4-0.6,0.7-0.5h1.1v0.2c-0.1,0.2-0.3,0.4-0.8,0.4
	H208.4z M220.9,72l0.4-0.2h0.2l-0.4,0.4L220.9,72z M224.4,20.3c-1.7,0.3-2.4,0.5-2.4,0.9l0.2,0.2h0.2c0-0.2,0.1-0.4,0.2-0.4l0.8-0.1
	l-0.2,0.4v0.2l0.5,0.6l-1-0.2l-0.2,0.2c0,0.3-0.1,0.5-0.4,0.5v1.9c0.1,0.9,1.5,1.3,4.4,1.1l1.1-0.1c0.9,0,1.8-0.3,2.4-1l-0.2-0.2
	h-0.2l-2.4,0.5l-0.7-1.5c0.1-0.2,0.2-0.5,0.5-0.5c0.8,0.5,1.8,0.8,2.7,0.8l1.5-0.5v-0.2l-1.4,0.1l-0.2-0.2v-0.2l0.9,0.1l0.8-0.1
	l0.2-0.2l1.2,1.3v0.2l-0.9-0.6h-0.2l-0.2,0.2l0.2,0.4l-0.2,1c0.2,0.5,0.4,0.8,0.5,0.7l25.4-1.3c0.4-0.7,1.1-1.1,1.8-1.4h0.2
	l-0.1,0.4l0.4,0.4l-0.2,0.4v0.2l6.5-0.3l0.2-0.2l-0.3-5.1l-0.2-0.2l-2,0.2l-3.5,0.1l-1.9,0.1l-6.8,0.2l-3.4,0.3
	c-0.2,0-0.2,0.2-0.2,0.6l-1.1,1.8l-0.8,0.1c-0.4,0.1-0.8,0.2-1.1,0.5h-0.2l0.2-0.5l-0.3-0.5v-0.2h0.2l0.2,0.2l1.1-0.1
	c0.5-0.2,0.7-0.5,0.7-0.8v-0.2l-0.2-0.2l-1.5,0.5h-0.2l-0.4-0.5c1.3-0.2,2-0.4,2-0.6v-0.2l-6.5,0.2l-2.8,0.2c-2.2,0-4.4,0.4-6.6,1.1
	c0-0.2-0.4-0.5-1.1-0.5l-0.8,0.1l-1,0.5c0-0.2-0.3-0.3-0.9-0.3h-0.2l-0.2,0.2l0.3,0.8v0.2h-0.6C225.4,21.2,224.9,20.8,224.4,20.3
	L224.4,20.3z M231.5,20.9l0.8-0.1l0.1,1.4C231.8,22.2,231.5,21.8,231.5,20.9L231.5,20.9z M242.1,20.6l1.4-0.1c0,0.6,0.2,0.8,0.7,0.8
	c0,0.3-0.5,0.5-1.6,0.7C242.4,22.1,242.2,21.6,242.1,20.6L242.1,20.6z M234.5,22.5c0-0.3,0.5-0.5,1.4-0.7h0.2v0.4l-0.2,0.4l-0.5-0.1
	l-0.6,0.2L234.5,22.5z M250.9,21.1l0.8-0.1l-0.2,0.9c0,0.2,0.3,0.4,0.8,0.3c0,0.2-0.4,0.4-1.2,0.5c-0.4,0.1-0.8-0.2-0.9-0.5v-0.2
	l0.4,0.2h0.2l0.4-0.4L250.9,21.1z M227.9,22.8l1-0.5h0.2v0.2c-0.2,0-0.3,0.1-0.4,0.2s-0.2,0.2-0.1,0.4h-0.4L227.9,22.8L227.9,22.8z
	 M234.9,23h0.4l0.7,0.6h0.2l0.2-0.2l0.2,0.4l-0.4,0.3h-0.2l-0.9-0.1L234.9,23z M223.6,24.4l1.8,0.8v0.2h-0.2c-1-0.2-1.5-0.5-1.5-0.8
	L223.6,24.4z M232.4,24.7l0.8-0.3l1.9-0.1c0,0.2-0.5,0.4-1.4,0.5l-1.2,0.1l-0.2,0.2V24.7z M244.5,27c-2.8,0.1-5.5,1-7.8,2.7
	c-0.8,0.8-1.3,1.3-1.8,1.4c-1.5,0.8-2.8,2.4-3.9,5.1c-1.5,4.9-2.1,8.5-1.9,10.8c0.1,0.9,0.3,1.4,0.7,1.4l0.1,0.8
	c0.2,2.4,0.8,4.8,2,7c2.3,4,4.7,5.9,7.1,5.8v0.2l-0.8-0.2l-0.2,0.2v0.2c2.6,1.1,5.4,1.6,8.3,1.6l1.6-0.1c0.9,0,1.8-0.4,2.4-1
	l1.1,0.2l0.8-0.1c1.3-0.3,2.4-1,3.1-2.1v-0.2h-0.2l-0.6,0.2v-0.2l0.6-0.2l1.1-0.1l0.4-0.4v-0.2l-1.5,0.2h-0.2c0-0.3-0.2-0.6-0.5-0.8
	l0.8-0.1l2.3-1.2v-0.2l-1.8-0.4v-0.2l0.2-0.2h0.2l1.1,0.6l0.5-0.3c0-0.5-0.4-0.8-1.1-0.8h-0.2l-1.8,0.3c-0.8-0.1-1.3-0.4-1.3-0.9
	l2.1-0.1v-0.4l-0.2-0.2l0.8,0.1c1.5,1,2.4,1.5,2.8,1.5v0.2c-0.7,0.2-1,0.2-1,0.5v0.2c0,0.2,0.4,0.3,1,0.5h0.2c1.4-2.5,2-4.6,1.9-6.3
	v-0.2c0-1.6-1.1-3.1-2.8-3.2v0.2c-0.5,1-0.8,2-1.1,3.1v0.4h-0.6c-0.5,0.1-0.9,0.4-1.2,0.8l-0.8-0.1l-1.6,2.1v0.6l-0.5,0.2l0.2,0.8
	l-0.2,0.2c0-0.3-0.2-0.6-0.5-0.8l-0.4,0.4c-0.8,0.4-1.2,0.6-1.2,0.8v0.2c2.4,0.2,3.7,0.5,3.7,0.8v0.2h-0.2l-2.8,1l-1.4-0.3v-0.2h0.2
	l0.6,0.2l0.2-0.2c0-0.4,0.3-0.7,1.1-0.9c0-0.3-1-0.4-3.1-0.3c-1.2,0-2.4,0.4-3.4,1.1l-0.2-0.2l-1.1,0.1l-0.2-0.2c0.7,0,1-0.2,1-0.3
	v-0.2l-1-0.1l-1,0.5l-0.4-0.8c-1.8-1-2.8-1.8-2.9-2.4l-0.6,0.2h-0.2c-0.5,0.1-1-0.2-1.1-0.7c0.4,0,0.7-0.2,0.8-0.5v-0.4l-1.2-2.2
	l0.1-0.9h-0.5c-0.4,0.4-0.8,0.7-1.3,0.8h-0.2v-0.2l0.2-0.8l1.4-0.1l0.2-0.1l-0.3-0.6l0.2-0.6v-0.2l-0.2-0.2c-0.4,0-0.6-0.1-0.6-0.2
	c0.5,0,0.8-0.2,0.8-0.4v-0.2c-0.1-0.8-0.3-1.5-0.6-2.1c-0.8-0.2-1.3-0.4-1.3-0.5v-0.2h0.2l0.2,0.2h0.4c0.2-0.3,0.5-0.5,0.8-0.5
	l-0.1-1c0-0.7,0.1-1.5,0.2-2.1c1.2-3.1,1.8-5.2,1.8-6v-0.2h0.6c0.5,0,1.1-0.5,1.9-1.5c1-0.1,1.5-0.7,1.4-1.8l-0.3-0.8h0.2l0.1-0.2
	h0.2v0.2l-0.2,0.2v0.2c0.5,1,0.8,1.5,0.9,1.5h0.4l0.2-0.2l-0.5-1.2l0.2-0.2h0.4l0.4,0.4v0.2l-0.1,0.9h0.2l0.2,0.2h0.4
	c0.3-0.4,0.7-0.6,1.1-0.7v0.6l0.2,0.2h0.6c0.9,0,1.8,0.2,2.7,0.8c0.8,0.8,1.8,1.2,3,1.1v0.2l-0.2,0.2v0.6c0.1,1,0.7,1.8,2,2.7
	l-0.1,0.6v0.5c0.4,0.5,1,0.8,1.7,0.8l1-0.1c2.3-0.5,3.4-1.3,3.4-2.4v-0.5c0-0.4-0.5-1.1-1.5-2.2l0.3-1.3l-1.3-0.5l0.4-0.5v-0.2
	c-0.1-0.8-0.8-1.5-2.5-2.4c-0.1,0.8-0.2,1.3-0.5,1.3h-0.4v-0.2l0.4-1.8c-2.9-2-6.4-2.9-9.9-2.6L244.5,27z M242.8,29.9l0.9,0.2
	c0,0.2-0.3,0.5-0.8,0.8L242.8,29.9z M233.4,35.3l0.6-0.2h0.2l0.9,0.6h0.6l0.2-0.2c0,0.3-0.4,0.5-1.2,0.8c-0.8,0.1-1.1-0.3-1.1-0.9
	L233.4,35.3z M256.4,34.2l0.8-0.3h0.2l0.2,0.2c0.3,0.8,0.7,1.2,1.2,1.2l-0.5,0.4l-0.8-0.1h-0.5l-0.5-1.2L256.4,34.2z M253.2,35.4
	l0.8-0.3c0.6,0.2,0.9,0.3,0.9,0.5v0.5c-0.6,0.1-0.8,0.3-0.8,0.5h-0.2l-0.2-0.2l0.1-0.4v-0.2L253.2,35.4L253.2,35.4z M257.1,36.3
	c0.2,0.2,0.5,0.3,0.9,0.3h0.2l1.2-0.5l0.1,0.8l-1.2,0.2c-0.5,0-0.9-0.2-1.3-0.5L257.1,36.3z M230.6,39.6c0-0.5,0.4-0.9,1.3-1.2v0.2
	h0.2v0.6l1.1,0.9c0,0.3,0.5,0.5,1.4,0.5v0.2c-1,0.4-1.5,1-1.5,1.7l-2.4,0.2v-0.2l0.6-1.1l-0.3-0.5v-0.2c0.8-0.2,1.1-0.5,1.1-0.7
	v-0.2l-0.2-0.2c-0.4,0.1-0.8,0.2-1,0.5h-0.2L230.6,39.6z M234,42.9c0-0.5,0.3-0.9,0.9-1.1v0.2h0.2v0.2c-0.4,0.2-0.6,0.7-0.5,1.1
	l-0.6-0.1V42.9z M231.8,43.5h0.2c0.6,0.1,1.2,0.4,1.7,0.8l-0.4,0.2c-0.2-0.3-0.5-0.5-0.9-0.5h-0.2l-0.2,0.2L231.8,43.5z M231,46.3
	c0-0.3,0.9-0.6,2.8-0.9l-0.2,1l-0.6-0.2l-2.5,0.4c-0.2,0-0.4-0.1-0.4-0.2v-0.2h0.2L231,46.3z M230.2,48c0-0.2,0.1-0.2,0.4-0.3
	l0.2-0.2c1-0.1,1.6-0.2,1.8-0.3v0.2c-0.5,0.3-0.9,0.5-1.5,0.6h-0.2L230.2,48z M231.4,51l0.5-0.4c1.5-0.1,2.7,0.7,3.5,2.2h-0.2
	c-0.5-0.1-1-0.3-1.4-0.7c-0.5,0.6-1.1,1-1.8,1.1l-0.7-0.6v-0.2l0.8,0.3h0.2l0.2-0.2v-0.2C231.8,51.7,231.4,51.3,231.4,51L231.4,51z
	 M255.3,50l-0.4,0.4v0.2l0.4,0.4h0.2l1.1-0.3v-0.2l-0.8-0.5H255.3z M231.1,53.1l0.5,0.1c0,0.2-0.2,0.3-0.6,0.4L231.1,53.1
	L231.1,53.1z M232.9,53.6h0.2l0.8,0.3v0.2l-0.2,0.2v0.4c0,0.2,0.6,0.3,1.9,0.3v0.2c-1,0.2-2,0.6-2.8,1.1h-0.2l0.2-0.4l-0.7-0.6V55
	c0.5,0,0.8-0.2,0.8-0.3v-0.2L232.9,53.6z M239.1,56.9c0.3,0,0.6,0.5,1,1.7l1.8-0.2l0.9,0.1v0.2l-0.8,0.3l-2.9-0.2h-0.2v-0.2
	L239.1,56.9z M245.7,59.6h0.4c0.5,0.5,1.2,0.8,1.9,0.9c-0.5,0.9-0.9,1.5-1.3,1.5c-0.2-0.8-0.5-1.5-1-2.1V59.6z M249.7,61.2
	c0-0.6,0.4-1,1.3-1.2h0.2c0,0.6-0.4,1.1-1.2,1.3L249.7,61.2L249.7,61.2z M248.4,61.7l1.2,0.1l0.5-0.2h0.2c-0.1,0.2-0.2,0.5-0.5,0.5
	l-1.4-0.1h-0.2v-0.2L248.4,61.7z M249.8,65.4l-0.5,0.2c-8.8,0.6-13.1,1.1-13.1,1.5c-0.7-0.5-1.6-0.7-2.4-0.6l-6,1.1
	c-1.1-0.1-2.1-0.2-3.1-0.6v0.2l0.2,0.2c-0.4,1.4-0.5,2.8-0.5,4.2v0.4c0,0.4,0.2,0.7,0.5,0.8l2.1-0.1l27.7-1.8l3.1,0.1h0.2l0.4-0.4
	l1,0.3h0.6c0.3-0.2,0.5-0.4,0.5-0.7c0.5,0.5,1.1,0.7,1.8,0.7l1-0.1l4.2-0.6h0.4c0.3,0,0.4-0.5,0.4-1.7c-0.1-0.9-0.2-1.4-0.5-1.4
	l0.3-1l-0.2-1.1h-0.2l-1.8-0.2c-0.3,0.1-0.5,0.2-0.5,0.4v0.4l0.2,0.2l1-0.3h0.2l-0.3,0.9l0.5,0.7v0.2l-0.2-0.2
	c-1.5-0.2-2.3-0.3-2.3-0.5v-0.2l0.2-0.2l0.9,0.1h0.4l0.2-0.2c0-0.2-0.4-0.3-1-0.5l0.1-0.8v-0.2l-0.2-0.2c-0.8,0.1-1.2,0.5-1.2,1.2
	c-1-0.6-2.1-0.9-3.3-0.8h-0.4c-0.6,0-1.1,0.3-1.5,0.8c-0.8-0.5-1.6-0.8-2.5-0.8H256l-4.3,0.5H249.8z M241.2,68.2
	c0-0.5,0.3-1,1.1-1.2l0.3,0.8c-0.2,0.2-0.5,0.4-0.8,0.5H241.2z M255,67.9l1.1,0.3v0.2c-0.3,0.6-0.9,1.1-1.6,1.1v-0.2l0.6-0.8
	l-0.2-0.2v-0.2L255,67.9z M262.9,69.1c0.1-0.5,0.2-0.6,0.3-0.6h0.5c0.2,0.1,0.5,0.3,0.7,0.8l-0.2,0.2h-0.2
	C263.5,69.6,263.1,69.4,262.9,69.1z M243.7,69.9v-0.2l2,0.3h0.2c0.4,0,0.8-0.2,1.1-0.5v0.5c-1.4,0.2-2.1,0.5-2.1,0.8
	C244.5,70.8,244,70.5,243.7,69.9L243.7,69.9z M256.2,18.8l-0.2,1.3h-0.2l-0.2-0.2c-0.2-0.7-0.2-1-0.5-1h-0.4l-0.2,0.2
	c0,0.7,0.2,1.4,0.4,2l1.4-0.5l0.5,0.5v0.2l-1.2,0.3l-0.8-0.1l0.2,2.9l8.3-0.3c1.2-0.2,1.9-0.5,2.1-1.1c0.2,0,0.5,0.3,0.8,1l1.1-0.2
	l18.8-0.8c2.7-0.2,5.3-0.5,7.9-1.1l0.4,0.6l2.4-0.2c0.4,0,0.6-0.5,0.5-1.4l-0.1-0.8c-0.7-2.2-1.7-3.3-3.1-3.2l-0.8-0.2
	c-0.7,0.2-1.4,0.5-2,0.8c0-0.3-0.7-0.5-2.1-0.5l-8.9,0.6c-0.7,1.1-1.2,1.6-1.5,1.6l0.3-1.5l-6.6,0.4L256.2,18.8z M283.3,20.7
	c0.1-0.5,0.2-0.8,0.3-0.8c0.5,0.5,0.9,0.8,1.3,0.8V21l-0.2,0.2C284.3,21.2,283.7,21,283.3,20.7L283.3,20.7z M280.2,21.3l1.4,0.5
	l1-0.2l0.3,0.8l-0.2,0.2h-0.2c0-0.5-0.2-0.8-0.3-0.8l-1.4,0.3h-0.6V21.3z M271.5,25.4c-1.6,0.1-3.3,0.2-4.9,0.5
	c-2.7,0.2-4,1.8-4.3,4.7l0.1,0.8c0.1,0.6,0.3,1.2,0.7,1.8c-0.4,0.4-0.6,1-0.5,1.5c0.2,1.3,0.4,2,0.6,2c0.5-0.3,0.8-0.5,0.8-0.7
	c0-0.4-0.3-0.8-0.9-1.2v-0.4c0.5,0,0.8-0.2,1.2-0.5h0.2c0.1,0.8,0.5,1.2,1.2,1.2l-1.3,1.1v0.2l0.3,0.4l0.4-0.3h0.2l0.3,0.8v0.2
	l-2.4-0.4l-0.2,0.6l0.7,7.9l-0.1,0.9c0.8,0.1,1.1,0.2,1.1,0.3c-0.8,0.2-1.1,0.4-1.1,0.5l0.2,3.9l0.3,1.8c-0.2,0-0.3,0.5-0.3,1.3
	l0.3,0.8l0.5-0.2c0.8,0.2,1.1,0.3,1.1,0.5v0.4l-0.4,0.2l-1.1-0.3l-0.2,0.2v1.9c0.1,0.6,0.2,0.8,0.5,0.8c0.4-0.6,0.9-1,1.6-1.2
	l0.4,0.1v0.2l-2.2,1.2c0.1,1.5,0.6,2.6,1.7,3.1l1-0.8h0.2v0.4c-0.6,0.2-0.8,0.3-0.8,0.5c0,0.2,0.4,0.4,1,0.5l0.8-0.3
	c0.8-0.8,1.8-1.3,2.8-1.4c-0.1-0.6,0.2-1.2,0.7-1.7c0-0.2-0.4-0.3-1.1-0.3l-1.3-1.3H269c0,0.3-0.2,0.5-0.6,0.7V58l-0.2-0.2
	c0.5-0.5,1.2-0.8,2-1l-0.5-0.5c0.2-0.8,0.5-1.1,0.8-1.1l0.5,0.1h0.2v-0.6l-0.5-6.1l0.2-1.6c0-0.5,0.7-0.8,2.1-0.8
	c1.3,0,2.6,0.3,3.8,0.9c2.6,1.5,4,2.3,4.4,2.3v0.4H281l-0.8-0.1h-0.2l-0.2,0.2V50c2.3,2.8,3.5,4.4,3.5,4.6L285,54h0.4
	c-0.8,0.5-1.2,1-1.1,1.6v0.2c0,1.1,0.8,2,1.9,2.1l-0.1,0.5c0,0.5,0.6,1,1.7,1.5l-0.2,0.4c0,0.2,0.4,0.3,1.1,0.6l0.8-1.1h0.6l0.3,0.8
	l1.4-0.7c1.4-0.3,2.1-0.8,2.1-1.4v-0.2c-0.2-0.9-0.7-1.8-1.4-2.4v-0.2h0.4v-0.4l-0.3-0.4c-1.1-0.2-1.8-0.3-1.8-0.5l0.7-0.8v-0.4
	l-0.2-0.4c-1-2.2-3.4-4.9-7.3-8c0.2-0.7,0.3-1,0.5-1h0.2l0.4,0.5c0.8-0.1,1.5-1,2.1-2.8l0.9,1.1h0.2c0.2,0,0.2-0.2,0.3-0.6
	c2.3-1.8,3.5-4.7,3.2-7.6l-0.1-0.9c-0.2-2.6-1.6-4.8-4.5-6.6C285.4,25.4,280.2,24.9,271.5,25.4z M282.2,28.2l1.7,0.5
	c-0.1,0.2-0.2,0.5-0.5,0.5c-0.4-0.3-0.9-0.5-1.4-0.5v-0.2L282.2,28.2z M283.6,30.4c1.6-0.4,2.6-0.8,3-1.1l0.8,2
	c-0.5,0.2-1.1,0.4-1.6,0.7c0-0.7-0.8-1.1-2.2-1.4V30.4z M269.8,31.6c2.8-0.5,4.2-0.9,4.2-1.4h0.2v0.5c5,0.2,7.9,0.7,9,1.3
	c0.1,0.8,0.6,1.4,1.6,1.8c-0.5,0.9-0.8,2.7-0.8,5.2v0.2l-0.6-0.1h-0.2l-1.6,0.8v0.4l1-0.1c0,0.2-0.2,0.4-0.6,0.5l-2.1-0.4l-0.2,0.2
	v0.2l0.4,0.4h0.2l-0.1,0.4v0.2l1.4-0.1l0.4,0.4v0.2l-1.1-0.2h-0.4l-0.2,0.2v0.2c0.1,0.2,0.3,0.3,0.7,0.5c0.5-0.1,0.9-0.3,1.2-0.7
	v0.4c0,0.6,0.5,0.8,1.3,0.8c-0.2,0.4-0.5,0.7-1,0.7h-1.9c-0.2-1-0.5-1.5-0.9-1.5c-0.2,0-0.4,0.1-0.4,0.3l0.1,1.2h-0.5v0.4l0.2,0.2
	l0.6-0.5h0.2c0,0.5-0.4,0.8-1,0.8h-0.4c-0.3,0-0.6-0.7-0.8-2.2v-0.2h0.2l0.2,0.2h0.4c0.5-0.1,1.1-0.5,1.3-0.9
	c-0.7-0.7-1.7-1-2.7-0.8l-6.5,0.5h-0.2c-0.2-0.9-0.5-1.8-0.9-2.8c0-0.2,0.2-0.3,0.6-0.4l-0.3-0.8l0.1-1.4c0-0.3-0.2-0.5-0.4-0.5
	c0.4-1.1,0.5-2.1,0.5-3.3V31.6z M281.1,30.8l0.4-0.4h0.5c0.6,0,1,0.1,1,0.3l-0.4,0.2L281.1,30.8z M265.8,33.8c0.3-1,0.8-1.5,1.5-1.6
	h0.2c-0.6,0.7-1,1.5-1,2.4C266.2,34.6,266,34.3,265.8,33.8z M265.2,38.3c0-0.3,0.6-0.7,2-1.1h0.2c0.1,0.3,0.2,0.6,0.5,0.8l-2.5,0.2
	L265.2,38.3l-0.1,0.2L265.2,38.3z M288.4,39c0.5-0.7,1.3-1.1,2.2-1.2h0.2V38l-0.2,0.2c-1.1,0.4-1.8,0.8-1.7,1.2v0.2l0.2,0.2h-0.2
	L288.4,39z M264.8,40.4c0.1-0.4,0.2-0.6,0.5-0.7l1,0.1l-1.1,1.2C265,41,264.9,40.8,264.8,40.4L264.8,40.4z M267.1,48.4l1-0.1v0.5
	l0.3,0.8h-0.2l-0.2,0.2c-0.5-0.3-0.8-0.7-1.1-1.2L267.1,48.4z M264,52.7l0.2-0.2h0.2c0.2,0,0.4,0.2,0.5,0.6l-0.2,0.2L264,52.7z
	 M267.1,58.2h0.2c0.4,0.2,0.6,0.5,0.7,0.8c0,0.4-0.1,0.7-0.3,0.8l-0.3-0.6l-1.2,0.5h-0.2v-0.5C266.7,59.1,267.1,58.8,267.1,58.2
	L267.1,58.2z M268.7,59.8c0.2-0.4,0.5-0.5,0.8-0.5h0.2l0.2,0.2v0.6h-0.2L268.7,59.8z M290.8,63.2l-16,1.6l-1.4-0.1v0.2l1.5,0.8
	l-0.2,0.2h-0.4l-0.8-0.7c-0.5,0.9-0.9,1.5-1.5,1.5v0.2l0.5,0.8l-0.7,1.9v0.2l9.2-0.2l4.7-0.2l8.8-0.7v-0.2h-0.2v-0.2l1-0.3h0.2
	l-0.2,0.6l0.2,0.2h0.2c0.6-0.2,1.1-0.5,1.6-1h0.2c0,0.6,0.5,0.8,1.3,0.8h0.6l0.2-0.2l-0.2-3.7l-0.2-0.2c-0.3,0.1-0.6,0.2-0.8,0.5
	h-0.2l-0.2-0.2v-0.2l0.2-0.2c0.9-0.3,1.4-0.5,1.4-0.7v-0.5l-0.2-0.2h-0.5c-0.3,0.4-0.7,0.7-1.2,0.8h-0.2v-0.2l0.2-0.2v-0.2
	c0-0.4-1.5-0.5-4.5-0.4L290.8,63.2z M269.4,64.5c-1.9,0.2-3.8,0.6-5.6,1.3v-0.2c0-0.2,0.4-0.4,1.2-0.5v-0.2l-7.6,0.4l-0.2,0.2v0.4
	l0.5,3.9l-0.1,0.8v0.2l0.2,0.2l0.5-0.2l4.5-0.1c0.8-0.2,1.2-0.5,1.2-0.8h0.2c0.7,0.5,1.5,0.8,2.4,0.8c1.3-0.2,2.5-0.6,3.6-1.3v0.4
	c0.5,0,1.1-0.2,1.5-0.7v-0.2l-0.2-0.2l-0.6,0.2l0.1-1v-0.2l-1.5-0.3l1.9-2.5l-0.2-0.2L269.4,64.5z M258.7,66.7
	c0-0.4,0.2-0.6,0.8-0.8c0.9,0,1.4,0.2,1.4,0.3L258.7,66.7L258.7,66.7z M266.9,67.2c0-0.2,0.2-0.2,0.6-0.3h0.2l-0.3,1.1
	c0.1,0.4,0.3,0.6,0.7,0.6v0.2l-0.8,0.2h-0.2v-0.6c0-0.2-0.3-0.4-0.9-0.3c0-0.2,0.3-0.3,0.8-0.5h0.2L266.9,67.2z M274.2,67.5l1.5-0.2
	c0.4,0,0.7,0.1,0.8,0.3c-0.5,0.5-1.1,0.8-1.8,1h-0.2L274.2,67.5z M288.5,17.1l-0.2,0.2l0.1,1.8l0.2,1.1l-0.1,0.9l0.1,1.2
	c0,0.2,0.2,0.2,0.5,0.4l2.9-0.3l1,0.2l0.2-0.2v-0.2c-0.7-0.1-1-0.2-1-0.3l1.6-0.1l0.2-0.2c0-0.3-0.7-0.5-2.1-0.8
	c0-0.2,0.3-0.3,0.8-0.5c1,0.1,1.5,0.5,1.5,1.1l-0.6,0.9v0.2l2.5-0.2l0.2-0.2c-0.4-0.8-0.9-1.5-1.5-2.2l-3.3-0.6h-0.2
	c-0.2,0.8-0.4,1.1-0.5,1.1c0-0.5-0.2-0.8-0.4-0.8l-1.4,0.1c0.2-0.3,0.4-0.8,0.5-1.1h0.2l0.9,0.6l0.4-0.4l-0.9-0.6v-0.2l0.2-0.2
	l1.4,0.2h0.2c0.2,0,0.3-0.2,0.5-0.8c0.5,0.2,1,0.4,1.4,0.7c1.5,1.7,2.7,2.5,3.5,2.4h0.2l0.2-0.2l-0.9-0.8v-0.2l2.9-0.4h0.2l-0.2,0.2
	l0.3,1.2l0.8-0.2h0.2c-0.2,0.3-0.5,0.6-0.5,1v0.2l0.3,0.4l0.2-0.2l3.1,0.2h0.5c0.1-0.8,0.2-1.1,0.3-1.1h0.2l0.4,0.2l1-0.3v0.2
	l0.2,0.2c0,0.2-0.2,0.2-0.5,0.4l0.2,0.2l1.1-0.1l0.2-0.2l-0.1-1.2l0.9,0.2h0.4c0.5-0.5,1-0.8,1.6-1h0.6v-0.4l-0.5-0.6v-0.2l0.8-0.2
	h0.2c0.5-0.1,1.1,0.3,1.3,0.8c-1.3,0.1-2.8,0.9-4.5,2.6v0.2h0.2l0.2-0.2l1.2-0.1l8.4-0.2h0.2c1.8-0.1,3.4-0.4,5.1-1
	c0.6,0.5,1.5,0.8,2.3,0.8l1.2-0.1l0.2-0.2l-0.2-4c0-0.5-0.2-1.1-0.5-1.5l-2.5,0.2l-0.8,0.1L311.8,16h-0.4c-2.3,0.1-4.6,0.5-6.7,1.4
	c0-0.5-0.5-0.8-1.5-0.9h-0.6l-0.8,0.3l-3.1,1.8c-0.7-0.8-1.1-1.2-1.3-1.2l-0.2,0.6h-0.4l0.2-0.5l-1.3-0.7l-0.8,0.1l-1,0.9
	c0-0.5-0.9-0.8-2.7-0.8L289,17L288.5,17.1z M294.7,17.3l0.4-0.2l1.4,0.5c0,0.6,0.3,0.8,0.8,0.8v0.2c-0.3,0.1-0.6,0.2-0.8,0.5h-0.2
	v-0.2C295.2,18.4,294.7,17.8,294.7,17.3L294.7,17.3z M302.1,17.3l0.6-0.4h0.2l0.8,0.7l-1.1,0.5l-0.5-0.7V17.3z M301.6,18l0.9,0.2
	v0.2l-0.4,0.2c0,0.2,0.2,0.2,0.4,0.2V19H302c-0.3-0.1-0.5-0.3-0.7-0.6L301.6,18z M322.1,18.3c-0.1-0.8,0.4-1.2,1.3-1.5
	c0.2,0,0.3,0.2,0.4,0.6C323.8,17.7,323.2,17.9,322.1,18.3L322.1,18.3z M303.1,19.2c0.2-0.5,0.6-0.8,1.1-0.8h0.2
	c-0.3,0.4-0.5,0.9-0.5,1.4h-0.2C303.7,19.4,303.4,19.2,303.1,19.2L303.1,19.2z M298.8,20.8c-0.3,0.1-0.6,0.2-0.8,0.5l1.1,0.6h0.2
	l0.2-0.2v-0.4l-0.4-0.4L298.8,20.8z M315.7,23.7c-1.4,0.1-2.8,0.3-4.1,0.6v0.2l0.6,0.3l-0.2,0.2h-0.4c-0.6,0-1.1-0.4-1.3-0.9h-0.2
	c0,0.3-0.2,0.5-0.7,0.5c-0.7-0.3-1.5-0.5-2.1-0.5c-0.8,0.1-1.8,0.3-2.4,0.8c-1.5-0.3-2.9-0.5-4.4-0.4l-1.6,0.1
	c-2.1,0.1-3.5,1-4.1,2.8c0.1,0.3,0.2,0.5,0.4,0.5l1.1-0.1l0.2-0.2c0.5,0.2,0.8,0.5,0.8,0.7l-0.5,0.3l-1.4-0.5h-0.5l-0.2,0.2l1.1,0.8
	v0.4c-0.8,0.5-1.1,0.8-1.2,1.1l0.5,7l0.2,3.1l-0.1,1.5l0.9,0.3h0.2c1.5-1.9,2.4-2.9,3-2.9v-0.2l-0.7-0.6v-0.2c0.5,0,0.8-0.2,0.8-0.3
	c-0.2-0.3-0.5-0.5-0.8-0.5v-0.2h0.2c1,0.3,1.5,0.8,1.6,1.7V40c0,0.5-0.2,0.8-0.5,1.1l-1.4-0.5l-0.8,0.2c-0.4,1.6-0.8,2.4-1.1,2.4
	h-0.2l-0.9-0.1v0.2l-0.2,0.2l0.1,0.8l0.5,1.8l-0.2,1.4v0.2l1.8,0.2c1.1-0.2,2.3-0.5,3.4-0.9v-0.2l-0.2-0.2c0-0.5,0.2-0.8,0.5-1.1
	h0.4l0.9,0.7l0.5-0.5l-0.1-1.1l0.2-0.2l2.4-0.2l7.3-0.6l2.7,0.1v-0.2l-0.2-0.8c0-0.6,0.5-1.1,1.5-1.4h0.2c-0.7,0.8-1.1,1.4-1.1,1.8
	v0.2l0.2,0.2l1.4-0.1c2.1-0.1,3.2-1,3.1-2.7v-0.2c0-0.5-0.2-1-0.5-1.4c-1.1-1.1-2.9-1.6-5.5-1.5c-2,0.2-4,0.6-5.8,1.3v0.2
	c0.6,0,1.3,0.1,1.9,0.3v0.2h-0.2c-0.2,0.7-0.5,1-0.6,1.1h-0.2l-0.2-0.2v-0.2l0.2-0.2V40L308,39l0.1-0.4v-0.2l-1.1,0.3
	c-1.2-0.3-2.4-0.5-3.7-0.5l-0.8,0.1l-0.2,0.2c-0.4,1.4-0.8,2.1-1.4,2.1h-0.2c0.6-1.1,0.9-2.2,1.1-3.4c-0.1-0.9-0.4-1.8-0.9-2.4
	c0.7,0,1-0.5,0.9-1.1l-0.4-3c0-0.6,0.7-0.9,2.1-1l5.8,0.1h0.2c1,0,1.9-0.4,2.8-0.9h0.2c0,0.2,0,0.3-0.1,0.4s-0.2,0.2-0.4,0.2v0.2
	l5-0.2c2.4-0.2,3.7-0.9,3.9-2.4v-0.2c-0.8,0.1-1.3-0.6-1.6-1.9v-0.2h0.2l0.6,0.3l0.2-0.2v-0.2C320.1,24,318.4,23.7,315.7,23.7
	L315.7,23.7z M295.9,26.1c0.4-0.5,1-0.8,1.6-0.7l2.3,0.4V26l-0.6,0.2l-3.1,0.1L295.9,26.1z M309.4,25.1l1.7,0.4v0.2l-0.2,0.2
	l-1.7-0.3v-0.2L309.4,25.1z M305.6,27.2l0.6-0.2L307,27c0.2,0,0.4,0.2,0.4,0.6h0.2v-0.2h0.2v0.2c-0.3,0.5-0.8,0.8-1.5,0.8
	c-0.2-0.7-0.4-1-0.7-1V27.2z M296.9,30.1l0.8,0.1h0.2l0.2-0.2l0.1,1.1c-0.8-0.2-1.1-0.4-1.1-0.5V30.1z M299.2,42.4
	c0.5,0,1.4-0.5,2.7-1.5l0.6,0.3c0,0.2-0.3,0.3-1,0.5c0,0.4,0.2,0.7,0.5,0.8l1-0.1v0.2c0,0.2-0.2,0.4-0.6,0.5l-1.4-0.1h-0.2l-0.2,0.2
	l0.3,0.6V44l-1.3-0.2V44l-0.2,0.2v0.6l-0.9-0.3v-1.9v-0.2H299.2z M310,41.3l0.4-0.2l1.7,0.8h0.2c0,0.5-0.4,1-1.2,1.2h-0.2V43
	l0.2-1.1C310.9,41.6,310.5,41.4,310,41.3L310,41.3z M301,42.2c-0.6,0-1.2,0.3-1.6,0.8v0.2l1-0.1c0.4,0,0.7-0.2,0.8-0.4v-0.5
	L301,42.2z M301.8,47c-0.5,0.8-1.7,1.2-3.4,1.3l-1.2,0.1c-0.5,0.1-1.1,0-1.6-0.2v0.2l-0.2,0.2v0.6l0.7,0.6c-0.4,1.1-0.5,2.3-0.5,3.4
	l0.1,1.6c0.1,1.3,0.4,2.6,0.7,3.8c0.1,1.5,2.1,2,6.3,1.8l2.2-0.2c1.8-0.1,3.4-0.4,5.1-0.9c2.4,0.3,4.8,0.5,7.2,0.4l1.8-0.1
	c3.2-0.2,4.7-1.5,4.6-3.7l-0.2-0.6c-0.9-1.4-3-2-6.3-1.8l-3.7,0.2l-0.4,0.5v0.2l-2-0.2h-0.5c-0.6,0-1,0.2-1.1,0.5
	c-1.7-0.5-3.4-0.5-5-0.4c-0.9,0.1-1.8-0.5-2-1.4c0.5-0.4,0.7-1.5,0.6-3.3l-0.2-2.5l-0.2-0.2H301.8z M297.9,53.6
	c-0.1-1.5,0.5-2.1,1.9-2.2c-0.2,1.5-0.8,2.2-1.8,2.2H297.9z M302.2,56.5l0.4-0.2l1,0.2c-0.7,1.3-1.1,1.9-1.4,2l-0.2-0.2l0.5-0.7
	l-0.1-0.8L302.2,56.5L302.2,56.5z M316.3,57.7l0.6-0.2h0.5l0.1,0.9l0.3,0.4V59h-0.4C316.9,58.5,316.5,58.1,316.3,57.7L316.3,57.7z
	 M327.2,61.3c-1.4,0.2-2.7,0.8-3.8,1.5h-0.2c0-0.2,0.2-0.3,0.8-0.4v-0.5l-9.2,0.2c-2.3,0.2-4.6,0.5-6.9,0.8v0.2h0.4v0.2l-0.4,0.2
	c-0.3-0.2-0.7-0.2-1-0.2v-0.2l0.2-0.4v-0.2l-0.2-0.2l-1.1,0.2l-1.6-0.1c-1.5,0.1-2.4,0.4-3,1.1h-0.2l-1.1-0.8h-0.2
	c0.1,0.8-0.8,1.1-2.3,1.2h-0.2c-0.2,0-0.3-0.3-0.5-0.8h0.2l-0.2-0.2l-5.7,0.3l-0.2,0.2l0.2,3.5c0,0.2,0.3,0.3,0.9,0.5
	c1.1-0.5,2.2-0.8,3.4-0.9h0.4c1.1-0.2,2.1,0.2,2.9,1c-1.1-0.2-2.3-0.3-3.4-0.3h-0.6c-1.1,0.1-2.3,0.5-3.4,1.1v0.2l6.2,0.1l15.9-1
	h0.2c0.4-0.7,1.1-1.1,1.9-1.2h0.2v0.2c-0.9,0.2-1.4,0.5-1.4,0.7v0.2l0.2,0.2h0.2l0.2-0.2l1-0.1l2,0.2h0.2c0.4,0,0.8-0.3,0.8-0.7
	l-0.3-0.5v-0.2c0.4-0.1,0.8-0.8,1.4-2c0.5,0.2,0.8,0.4,0.9,0.6v0.2l-0.8,0.2v0.2l0.6,0.1l4-0.2l1.2-0.2c0,0.7,0.5,1,1.1,0.9v0.4
	l-0.4,0.2c-0.4,0-0.9-0.3-1.5-1.1h-0.2l-0.2,0.2l-0.4,0.5h-0.4l-0.8-0.6c-0.2,0-0.2,0.2-0.2,0.6l-1,0.1l-0.5,0.4
	c0,0.5,2.5,0.5,7.6,0.4l0.2-0.4v-0.4l-0.5-3.1l0.2-1C328.6,61.7,327.9,61.3,327.2,61.3L327.2,61.3z M299.5,64.2l1.1-0.3h0.2L301,64
	l-0.6,0.5l0.5,1.1v0.2c-0.9-0.5-1.5-1.1-1.5-1.5L299.5,64.2z M312.2,65.2c0-0.2,0.2-0.4,0.8-0.4c0.1-0.5,0.2-0.8,0.3-0.8h0.2
	c0.8,0,1.3,0.2,1.3,0.7v0.2l-1.2,0.1l-1.4,0.5V65.2z M302.1,67.1c0-0.3,0.5-0.5,1.4-0.7h0.2l0.4,0.4V67L302.1,67.1z M304.6,67.2
	c0.1-0.3,0.4-0.6,0.7-0.5l1-0.1v0.2c-0.1,0.2-0.3,0.4-0.8,0.4L304.6,67.2z M317.1,66.9l0.4-0.2h0.2l-0.4,0.4L317.1,66.9z
	 M334.8,14.7l-16.7,0.8l-0.2,0.2l0.3,3v2.4l0.2,0.2l0.2-0.2l5.9-0.2l2-0.2v-0.2c-0.5-0.2-0.8-0.3-0.8-0.5v-0.4
	c1.3,0.2,2.1,0.6,2.4,1.1l0.8-0.2l15.3-0.8l15.3-0.7V19l0.2-0.2l-0.4-5.3l-1,0.3l-3.5-0.2h-0.6c-0.5,0-0.8,0.2-1.2,0.5l0.5,1v0.2
	c-0.5,0-1-0.5-1.6-1.5l-8.9,0.5c-0.8,0-1.8,0.3-2.4,0.8c-0.4-0.4-1-0.6-1.5-0.5l-0.8,0.1c-1.8,0.4-2.8,0.8-2.7,1.1h-0.2
	C335.2,15.1,335,14.7,334.8,14.7L334.8,14.7z M325.8,16.3l1.1,0.2v0.2l-0.5,0.8h-0.2c-0.2,0-0.3-0.2-0.4-0.8L325.8,16.3z M320.1,18
	l1.1-0.3l0.1,0.8l-0.8,0.1l-0.2-0.2L320.1,18z M347.8,17.7l1.3-1.1l0.3,0.6c-0.3,0.5-0.8,0.7-1.4,0.7L347.8,17.7z M351,18.2l1.6-0.6
	l0.1,0.8h-0.5l-1.4-0.1c-0.2,0-0.4,0.3-0.3,0.8h-0.2l-0.2-0.2l0.2-0.9L351,18.2L351,18.2z M333.2,20.1c0.4-0.6,0.8-0.9,1.1-0.9
	l0.5,0.2c0,0.4-0.3,0.6-1.1,0.7H333.2z M345.7,22l-3.9,0.3l-1.6,0.1l-1.5,0.2v-0.2h-0.4c0.1,0.8-0.4,1.1-1.2,1.3l-0.3-0.6l-2.4,1.4
	h-0.2l0.1-0.4c0-0.2-0.4-0.5-1.1-0.9l0.2-0.4v-0.2l-0.2,0.2l-4.9,0.2c-1.1,0.1-2.3,0.3-3.4,0.7c-0.6,0.5-0.9,1.3-0.8,2.5v0.5
	c0.1,0.4,0.2,0.6,0.3,0.6c0.1,1,1.5,1.5,4.5,1.5l1.6-0.1c2.9-0.2,4.6,0,5.2,0.4l0.5,12.8c0.2,1.8,0.5,3.6,0.9,5.3
	c-0.3,0.8-0.5,1.8-0.5,2.7c0.1,1,0.5,1.8,1.2,2.4h-0.5c-0.5,0-0.8,0.4-0.7,1.1l0.1,0.8c0.2,2.4,1.5,3.9,4,4.4h0.5
	c0.9-0.2,1.8-0.7,2.3-1.5l-0.2-0.2h-0.6l-1.6,0.7H341l0.5-0.7c0-0.2-0.2-0.3-0.6-0.3v-0.2h0.4l2.8,0.1c0.4,0,0.6-0.7,0.5-1.9
	c-0.1-0.5-0.3-0.9-0.5-1.4c0.2,0,0.4-0.1,0.4-0.3l-0.1-1.5l-0.2-0.2l-1.1,0.3c-0.3,0-0.6-0.2-0.8-0.5V51h0.2l0.2,0.2h0.2l1.6-0.6
	l-1.2-22.1l0.2,0.2l2.6-0.5c0.8-0.1,1.2-0.6,1.3-1.8c1,0.5,2,0.8,3.1,0.8v0.2c-0.6,0-1,0.2-1.1,0.5v0.2l0.2,0.2l0.9-0.1
	c1.7-0.2,2.5-0.4,2.4-0.8v-0.2l-0.8,0.1l-0.8,0.2v-0.2h-0.2V27l0.6-0.2l1.9,0.4c0.8-0.7,1.3-1.7,1.4-2.7v-0.4
	C354.6,22.4,351.6,21.7,345.7,22L345.7,22z M341,24.7c-0.1-0.8,0.8-1.5,2.5-2.1c-0.6,2.1-1.4,3.1-2.2,3.1H341v-0.2l0.4-0.2L341,24.7
	z M337.3,25.1c0-0.2,0.2-0.3,0.6-0.4l1.4,0.3c0,0.4-0.3,0.6-1.1,0.7H338l0.1-0.6H337.3z M349.7,25.7c0.3-0.5,0.8-0.8,1.5-0.9
	l0.4,0.1c-0.5,0.7-1,1.1-1.3,1.1L349.7,25.7z M331.9,28c0.3-0.9,0.8-1.5,1.5-1.5c0.4,0.2,0.6,0.3,0.7,0.5v0.2l-0.8,0.1
	C333,27.7,332.6,27.9,331.9,28L331.9,28z M338.6,28.6c0.6,0,0.9,0.2,0.9,0.7l-0.2,0.6l0.2,0.2c1.5,0.2,2.1,0.4,2.1,0.8l-0.2,0.2
	c-0.7-0.6-1.6-0.8-2.5-0.8l0.2-0.4L338.6,28.6L338.6,28.6z M338.5,31.9h0.2l2.2,0.9c0,0.2-0.2,0.4-0.6,0.5l-1.4-0.2l0.1-0.6v-0.2
	c0-0.2-0.2-0.2-0.4-0.2L338.5,31.9z M338.8,34.8l1.8,0.5v0.2l-1.2,0.3h-0.2v-0.2h0.2v-0.2c0-0.2-0.3-0.4-0.8-0.3v-0.2L338.8,34.8z
	 M339.4,36.6h0.4l2.2,0.9V38l-0.2,0.2l-1-0.2l-0.2,0.2c-0.7-0.2-1.1-0.8-1.2-1.5V36.6z M338.8,45.3h0.6c0.5,0.6,0.8,1,1.1,0.9
	l-0.4,0.4c-0.5,0-1.1-0.2-1.5-0.5L338.8,45.3z M341,47.8l1.2,0.1l-0.2,0.5l-1.2-0.1L341,47.8z M338.4,50.1l0.4-0.4l2.1-0.1V50
	c-1,0.1-1.5,0.3-1.5,0.7C339.1,50.3,338.7,50.1,338.4,50.1L338.4,50.1z M334,61.3l-13.1,0.8c-0.2,0-0.4,0.1-0.4,0.3l0.1,1
	c0,0.8,0.3,1.6,0.8,2.2c-0.5,0-0.8,0.2-0.8,0.4l0.1,1.4l0.2,0.2l1.1-0.1c4.6-0.2,8.3-0.5,11.2-0.8l3.4,0.1c0.2-0.8,0.3-1.3,0.5-1.3
	h0.2v0.2l-0.2,0.4v0.5l0.2,0.2l1.5-0.1c0.8-0.1,1.2-0.4,1.2-0.9c0.5,0.4,1.1,0.6,1.8,0.7c0.5,0,0.8-0.3,1-0.8l0.4,0.4l-0.1,0.3v0.2
	l18.8-1l0.2-0.2l-0.1-0.8c0-0.5-0.3-0.9-0.8-1.1l0.6-0.7l-0.2-1.2l0.1-1.2c-4.7,0-9.3,0.1-13.7,0.3c-2.9,0.1-5.8,0.5-8.6,1.1
	C337.7,61.3,335.8,61.2,334,61.3L334,61.3z M337.3,61.7c1.4,0.5,2.1,0.8,2.1,1v0.2h-0.2l-1-0.3l-0.4,0.4c-0.2,0-0.4-0.4-0.5-1V61.7z
	 M333.2,63.6c0-0.3,0.4-0.6,1.2-0.9h0.2c-0.2,0.5-0.5,0.8-0.8,1.1h-0.2L333.2,63.6z M325.9,64.3h0.2l0.2,0.8v0.2h-0.4
	c-0.4-0.4-0.7-0.6-0.9-0.6v-0.2h0.2l0.5,0.1C325.8,64.8,325.9,64.6,325.9,64.3L325.9,64.3z M333.9,65.6l0.4-0.4h0.2
	c0.9-0.1,1.4,0.1,1.4,0.3v0.2c0,0.2-0.2,0.3-0.6,0.4C334.4,65.9,333.9,65.7,333.9,65.6z M352,13.9l-0.2,0.2l0.2,1.5l0.2,2.9
	c0,0.6,0.2,0.9,0.5,1l2.9-0.2c0.7,0,1.5-0.2,2-0.8c0.1,0.4,0.2,0.6,0.4,0.6l12.4-0.7c0.5-0.7,1.5-1.1,2.3-1.1v0.2
	c-1,0.2-1.5,0.4-1.5,0.6l0.2,0.2l3.1-0.2l1.3-2h0.2l0.2,0.5c0,0.2-0.2,0.5-0.8,1.1v0.2l10.4-0.2c3.5-0.2,7-0.5,10.5-1.1l-0.6-4.1
	l0.1-0.9v-0.2l-40.2,2.2L352,13.9z M365.1,13.9l0.8-0.1c0.2,0,0.3,0.2,0.4,0.8c-0.2,0.6-0.4,0.9-0.6,0.9h-0.2l-0.2-0.2l0.1-0.6v-0.5
	L365.1,13.9z M378.5,14.5l0.8-0.3v0.2c1.2,0.3,1.8,0.7,1.8,1.1c-1.8-0.2-2.7-0.5-2.7-0.8V14.5z M371.4,20.4l-0.4,0.3
	c0.1,1.3-0.4,2.1-1.3,2.1h-0.2v-0.2c0.6-0.5,0.9-1.1,0.9-1.5v-0.2l-0.2-0.2c-2.5,0.2-4.9,1.1-6.7,2.8c-4.1,4-6,9.2-5.7,15.6l0.1,1.2
	c0.2,4.2,1.7,8.2,4.3,11.5c2.4,2.1,4.2,3.1,5.3,3.1h0.2l-0.1,0.4v0.2c0.6,0.8,3.9,1.3,9.8,1.5c2.8-0.2,4.6-0.8,5.3-2.1v-0.2H382
	l-0.2-0.2v-0.2L382,54v-0.2l-0.2-0.2l0.5-0.2c1.3,0,2.6,0.2,3.9,0.5c0.7-0.2,1.4-0.7,1.8-1.2c3.5-3.7,5-8.9,4.7-15.6
	c-0.1-2.6-0.7-5.2-1.7-7.6c-0.8-0.2-1.3-0.5-1.3-0.7l0.5-0.5V28c-3.1-5.6-8.6-8.2-16.9-7.8L371.4,20.4z M373.1,21.7l1-0.1
	c0.4,0,0.7,0.1,0.8,0.3v0.2c-0.2,0.4-0.5,0.6-0.8,0.5l-0.8,0.1L373.1,21.7z M364,26.7c0.2-0.5,0.7-0.8,1.2-0.9h0.4
	c0,0.6-0.5,0.9-1.5,0.9H364z M365.2,39.2c-0.1-2,0.2-4,0.7-6c1.3-4.6,4.2-7,8.6-7.3h0.2c4.1-0.2,7.1,1.7,9.1,5.7l0.8-0.3h0.2
	l-0.2,1.5l0.8,6.9l0.1,0.8l-0.2,2.4c0,0.2,0.1,0.3,0.2,0.4s0.2,0.2,0.4,0.1v0.2c-1.4,0.7-2.1,1.7-2,3v0.4l0.2,0.2
	c-1.8,1.2-2.8,2.3-2.8,3.1l-0.5-0.2c-1.4,0.2-2.1,0.8-2.1,1.6c-3.3,0.2-7-0.8-11.2-3.1l0.2-0.9v-0.2l-1.1-2.1l-4,1.5h-0.2
	c0.7-0.9,1.7-1.5,2.8-1.7l0.8-0.1l0.2-0.2C365.7,43.1,365.3,41.2,365.2,39.2z M385.1,29.9c0-0.3,0.4-0.5,1.2-0.5l1.8,0.2v0.2
	l-1.8,0.7L385.1,29.9z M358.7,37.3c0.1-0.3,0.2-0.5,0.4-0.5h0.2c0.7,0.5,1.1,0.8,1.5,0.8v0.2l-0.2,0.2L358.7,37.3z M362.7,38h0.2
	l1.1,0.8l-0.2,0.2l-1.4,0.1l-0.2-0.2l0.1-0.4C362.5,38.4,362.7,38.2,362.7,38L362.7,38z M384.5,52.7c0-0.2,0.2-0.4,0.8-0.4h0.6
	l0.2,0.2v0.4h-0.2l-1-0.2h-0.2l-0.2,0.2V52.7z M363.3,59.7c-6,0.4-8.9,0.7-8.9,1l0.3,3.7l-0.1,1.1l0.5,0.2l14.5-0.9l0.8-0.1
	c0.3-0.5,0.8-0.9,1.5-1.1c0.5,0.1,0.6,0.2,0.6,0.3c0,0.2-0.2,0.4-0.5,0.4v0.2l5.1-0.3l20.4-0.9c0.6-0.1,0.8-0.2,0.8-0.5v-0.6
	l-0.3-2.8l0.1-1.5l-0.2-0.4l-0.2,0.2l-10.5,0.5c-1.6,0-3.1,0.4-4.4,1.2h-0.5l-0.9-1l-2.1,0.2L363.3,59.7z M370.7,62.3
	c0-0.2,0.4-0.4,1.2-0.5V62c-0.2,0.4-0.5,0.7-1,0.7h-0.2L370.7,62.3z"/>
</svg>
